<svg xmlns="http://www.w3.org/2000/svg" viewBox="0 0 800 400"><path
        fill-rule="evenodd"
        clip-rule="evenodd"
        fill="#8993A4"
        d="M0 0h800v400H0z"
    /><path
        fill="#FFF"
        d="M491.5 191.5h-21c-1.4-12-5.9-23.6-13.1-33.3-.5-.7-1.1-1.4-1.6-2.1l4.9-4.9 10-10c3.1-3.1 3.4-8.9 0-12-3.4-3.1-8.6-3.3-12 0L443.9 144c-8.9-7-19.5-11.9-30.6-13.9-1.6-.3-3.2-.5-4.8-.7v-21c0-4.4-3.9-8.7-8.5-8.5-4.6.2-8.5 3.7-8.5 8.5v21l-2.5.3c-7.1 1-14 3.3-20.4 6.4-4.4 2.1-8.7 4.8-12.6 7.9l-4.8-4.8-10-10c-3.1-3.1-8.9-3.4-12 0-3.1 3.4-3.3 8.6 0 12L344 156c-2.1 2.7-4 5.5-5.7 8.5-4.7 8.2-7.8 17.5-9 27h-20.9c-4.4 0-8.7 3.9-8.5 8.5.2 4.6 3.7 8.5 8.5 8.5h21c.4 3.3 1 6.6 1.8 9.8 1 3.7 2.4 7.3 3.9 10.9 2.3 5.3 5.4 10.2 8.9 14.8l-4.9 4.9-10 10c-3.1 3.1-3.4 8.9 0 12 3.4 3.1 8.6 3.3 12 0l14.8-14.8c7.7 6 16.6 10.5 26 12.9 3.1.8 6.2 1.4 9.4 1.7v21c0 4.4 3.9 8.7 8.5 8.5 4.6-.2 8.5-3.7 8.5-8.5v-20.9c5.8-.7 11.4-2 16.8-4.2 3.6-1.4 7.1-3 10.4-4.9 2.9-1.7 5.6-3.6 8.3-5.7l4.9 4.9 10 10c3.1 3.1 8.9 3.4 12 0 3.1-3.4 3.3-8.6 0-12l-14.8-14.8a72.05 72.05 0 0 0 14.7-35.4h20.9c4.4 0 8.7-3.9 8.5-8.5-.2-4.8-3.7-8.7-8.5-8.7zm-41.4 29.3a62.3 62.3 0 0 1-6.2 11l-10.4-10.4-3.5-3.5c1.8-2.9 3.1-6.1 3.9-9.4h19.7c-.8 4.2-2 8.3-3.5 12.3zm-93.9 11a62.3 62.3 0 0 1-6.2-11c-1.6-4-2.7-8.1-3.5-12.4h19.7c0 .2.1.4.2.6.6 2.2 1.4 4.4 2.4 6.4.1.2.2.3.2.5.3.5.6 1 .9 1.6.1.1.1.3.2.4-4.6 4.7-9.3 9.3-13.9 13.9zm-6.2-52.6c1.7-3.9 3.8-7.5 6.2-11l10.4 10.4 3.5 3.5c-.5.9-1 1.8-1.5 2.8-.8 1.9-1.7 3.8-2.2 5.8-.1.3-.2.6-.2.9h-19.7c.8-4.3 1.9-8.4 3.5-12.4zm35.8 31.8c-.9-1.3-1.7-2.7-2.4-4.1-.5-1.5-.9-3-1.2-4.5-.1-.8-.1-1.5-.1-2.3 0-.8 0-1.5.1-2.3.3-1.5.7-3 1.2-4.5.7-1.4 1.5-2.8 2.4-4.1 1-1.1 2-2.2 3.2-3.2 1.3-.9 2.7-1.7 4.1-2.4 1.5-.5 3-.9 4.5-1.2 1.6-.1 3.1-.1 4.7 0 1.5.3 3 .7 4.5 1.2 1.4.7 2.8 1.5 4.1 2.4 1.1 1 2.2 2 3.2 3.2.9 1.3 1.7 2.7 2.4 4.1.5 1.5.9 3 1.2 4.5.1 1.5.1 3.1 0 4.6-.3 1.5-.7 3-1.2 4.5-.7 1.4-1.5 2.8-2.4 4.1-1 1.1-2 2.2-3.2 3.2-1.3.9-2.7 1.7-4.1 2.4-1.5.5-3 .9-4.6 1.2-.7.1-1.5.1-2.3.1-.8 0-1.5 0-2.3-.1-1.6-.3-3.1-.7-4.6-1.2-1.4-.7-2.8-1.5-4.1-2.4-1-1-2.1-2.1-3.1-3.2zm53.1-19.5h-5.1c0-.1-.1-.2-.1-.4s-.1-.4-.1-.5c0-.1 0-.1-.1-.2-.8-2.9-2-5.8-3.6-8.3l13.9-13.9c2.4 3.4 4.5 7.1 6.2 11 1.6 4 2.7 8.1 3.5 12.4-4.9-.1-9.7-.1-14.6-.1zM420.8 150c3.9 1.7 7.5 3.8 11 6.2l-10.4 10.4-3.5 3.5c-.9-.6-1.9-1-2.8-1.5-.8-.4-1.6-.7-2.5-1.1-.1 0-.1-.1-.2-.1-1-.4-2-.7-3.1-1-.3-.1-.5-.1-.8-.2v-19.7c4.2.7 8.3 1.9 12.3 3.5zm-41.6 0c4-1.6 8.1-2.7 12.4-3.5v19.7c-3.3.8-6.6 2.2-9.5 3.9l-13.9-13.9c3.4-2.4 7.1-4.5 11-6.2zm0 100a62.3 62.3 0 0 1-11-6.2l10.4-10.4 3.5-3.5c.3.2.6.4.9.5 2.2 1.3 4.6 2.3 7.1 3 .2.1.3.1.5.2.3.1.6.2.9.2v19.7c-4.2-.7-8.3-1.9-12.3-3.5zm41.7 0c-4 1.6-8.2 2.7-12.4 3.5v-19.7c3.3-.8 6.5-2.1 9.5-3.9l13.9 13.9c-3.5 2.4-7.2 4.5-11 6.2z"
    /></svg>
