<svg xmlns="http://www.w3.org/2000/svg" viewBox="0 0 517.7 247.5">
  <path fill="none" d="M458 247.7h-1.6l-.3 1H509v-1h-51Zm-319.2 0H10.2v1H144l-.7-1h-4.5Zm265 0H186.1v1h220.7l-.2-1h-2.8Z"/>
  <path fill="none" d="m143.3 247.7.7 1h42.2v-1h-43Zm263.3 0c0 .3 0 .6.2 1H456l.3-1h-49.8Z"/>
  <path fill="#12c19b" d="M186.1 240.3c.1-4.2-.3-8.5-.7-12.7a6 6 0 0 0-8.3-5c-3.4 1.5-6.9 3-10 5.2a25.7 25.7 0 0 1-8.9 4l-11 2.7c-1.2.4-2.5 1-3.7 1.7-2.3 1.2-3.7 5.1-2.6 7.4.7 1.3 1.5 2.8 2.4 4H186v-7.3Zm55.1-106.5c-.7-2-3.8-3.9-5.7-3.6-3.7.5-7.4 1.2-10.8 1.8-2.7 0-5.1.2-7.5 0-6.6-.8-11.9 2.2-17 5.8-3 2.2-3.6 7.4-1 10.2.9 1.1 2 2.1 3 3 9.2 8.4 20 14.6 29.7 22.1.7.6 1.8.6 2.7 1 2.5.6 6.1-1.3 7-3.6a54 54 0 0 0 1.5-29.8c-.3-2.3-1.2-4.6-2-6.9Zm213.6 108.8c-.7-.7-1.3-1.5-2-2-5.2-2.7-8.7-7-12.3-11.4-3.2-4-6-8.2-8.6-12.6a6.6 6.6 0 0 0-11.6 0c-1 1.5-1.8 3.2-2.7 4.8-3.9 7.4-6 15.6-10.3 22.9-.7 1-.9 2.2-.7 3.4h49.8c.3-1.8-.3-3.9-1.6-5.1ZM402.9 90c-.6-1.6-1.6-3.3-2.8-4.7-.8-1-2.3-1.3-3.8-2.1-1.7.5-3.6.8-5.1 1.7-6.8 4-13.6 8.1-20.3 12.3-2.8 1.7-3.3 6.4-.6 8.4 7.8 6 15.6 11.8 24.4 16.3 4.3 2.2 8 1.5 11.5-1.7 2.8-2.4 4-5.2 3-8.7-2-7.2-4-14.3-6.3-21.4Zm68.3 110.6c2.9 10.5 7 20.3 13.4 29.2 2.8 3.8 9.4 3.8 12.3.1l8.3-11.2c3.6-4.7 3.7-6.8.6-11.3a17 17 0 0 0-7.3-6.4c-5.6-2.3-11.2-4.6-16.9-6.7-1.7-.6-3.6-.6-4-.6-4.1-.2-6.9 2.9-6.6 5.5.1.5 0 1 .2 1.4ZM90.5 133.7c-1.4-.2-2.8-.4-4.2-.4-1.9 0-3.8.3-5.3.5-2.7-.5-5-1.2-7.4-1.1-2.8 0-5.6.6-8.3 1.3a6 6 0 0 0-4.2 6.6c1.7 9.8 6 18.8 10.2 27.8.9 1.8 3.7 2.9 5.8 3.9 2.1 1 5.2-.1 6.3-1.9a95 95 0 0 0 2.1-3.6c4.6-8.4 5.3-18.1 9.3-26.7 1-2.2-1.7-6-4.3-6.4Zm181-13.9 14.4 10.8c1.1.8 2.4 1.4 3.7 1.8 2.4 1 6.5-.8 7-3a60.5 60.5 0 0 1 7-20.8c.4-.8.3-1.8.4-2.7.3-2.7-3.7-6.5-6.3-6.2-1 0-2 0-2.7.4a40 40 0 0 1-19 3.2c-1.3-.2-2.7.2-4 .4-3.5.7-7 4.7-7 8.3.3.8.6 2.3 1.4 3.2 1.5 1.7 3.3 3.2 5.1 4.6Zm-142.1 58.8c4.9 3.8 10 7.4 14.8 11.3 12.7 10.2 12.8 10.3 21.6-3.7a43 43 0 0 0 4.3-8.9c1.6-4.2-1.9-9-6.3-9-5.3-.2-10.6-.1-15.8-.1v.4h-14.5c-1.4 0-2.8.4-4.2.7-1.9.4-3.5 4.4-2.4 6 .7 1.1 1.5 2.4 2.5 3.3ZM223.5 82c-1.4-.5-2.7-1.1-4-1.1-6.3 0-12-1.4-17.4-4.6-.8-.5-1.8-.7-2.7-1-2.2-.7-6 1-7 3.5-.4 1.3-1 2.7-.9 4 .3 6.6 2.7 12.7 5.2 18.7.5 1.2 1.7 2.2 2.7 3.1 3 3 7 3.4 10.2 1.1a77 77 0 0 0 15.9-15.5c.8-1 .8-2.5 1-3.2 0-2.2-1.7-4.7-3-5Zm99.1 89.5c3 3 6.8 5.2 10.9 6.5 2.8 1 5.7 1 8-1 2.9-2.7 5.6-5.8 4.1-10a194 194 0 0 1-6-18.7 8.3 8.3 0 0 0-2-3.7c-1-1-2.4-1.4-3.3-2-1.3.3-2.4.2-3.1.7-5 3.5-10.1 7-15 10.7-2.3 1.7-3 6.7-1.1 9.1a77 77 0 0 0 7.5 8.4Zm132.4-3a93 93 0 0 1 22-5c.4-.1.8-.5 1.3-.6 3.1-1 4.8-5.1 3-8a35 35 0 0 0-20.4-16.1c-.9-.3-1.9 0-3 0-1 .6-2.8 1.1-3.3 2.2a72.5 72.5 0 0 0-6.6 22.3c-.3 3 4 6.2 7 5.2Zm5.2-94.3c-3.2-6.1-7-12-10.6-17.8-1.8-2.8-7-3-8.5-.4-3.2 5.6-6.3 11.3-9 17.1-2 4 1.6 10 6 10.9l17.7 3.1c2.6.5 6-2.2 5.7-4.8-.2-2.7-.1-5.8-1.3-8.1Zm-60.9 87.3-.1-1.3c-.5-1.8-.8-3.6-1.5-5.3-2.3-5.6-7.6-7.3-12.5-4.2a51.6 51.6 0 0 0-11.6 10.1 7.8 7.8 0 0 0 .6 10.2c5.9 5.4 12.9 9.2 19.8 13 1.7.8 5.4-1.2 5.5-3.1.3-3.2.4-6.4.5-9.6h-.7v-9.8ZM37.6 211h-7v-.3c-3.8.3-7.5.5-11.2 1-1.9.3-3.6 1-5.4 1.7-2.6 1-3.8 4.8-2.3 7.1.7 1.2 1.4 2.4 2.3 3.5 6 6.8 13.8 11.3 21 16.5.8.5 3-.1 3.8-.9 2.1-2 3.3-4.7 3.5-7.5.4-5.2.6-10.4.7-15.6.1-2.7-2.4-5.3-5.4-5.4ZM386.5 27.6c2.6 3.3 5.4 6.4 8.3 9.4a41 41 0 0 0 7.3 6.5c3.4 2.2 7.1 1.1 8.2-2.2 2-5.6 3.3-11.4 4.7-17.2.2-1.2-.4-2.8-1.2-3.9a13.6 13.6 0 0 0-12-5.5 47.8 47.8 0 0 0-11.4 2c-5 1.4-7 7-3.9 11ZM82.8 209.1c4.9 5.8 11.6 9 17.7 13.2 1.1.8 4 .2 5.3-.8 1.8-1.6 3.2-3.4 3.2-5.9 0-2.3-.3-4.6-.4-6.9h-.3v-5.5c0-1.9-.2-3.7-.4-5.6-.7-5-5-7.5-9-4.9a46.9 46.9 0 0 1-15.1 6.8c-1 .2-2 .5-2.5 1.2-.7 1-1.5 2.6-1.2 3.7.4 1.7 1.5 3.3 2.7 4.7Zm150.7.2c5 3.5 9.7 7.3 14.1 11.4.4.4.8.5 1.2.8 2.7 1.7 7.5-.1 7.9-3.2.3-2.7.4-5.5.6-8.3h-.1c.1-2.3.5-4.6.3-7-.2-2.2-.8-4.5-1.6-6.6-1.5-4.4-6-6.3-10.3-4.7a31 31 0 0 0-12.5 8.7c-2.2 2.5-2.2 7 .4 8.9Zm96.7-170.2-5.9-.4c-2.2.2-4.6.3-7 .8a7.8 7.8 0 0 0-4.9 12.1c3.3 4.7 6.4 9.5 9.7 14.1 1 1.5 2.5 2.9 3.9 4.1 1.5 1.4 5.2 1 6.5-.6.6-.8 1.3-1.5 1.6-2.4a36.6 36.6 0 0 0 2-22.2 7.5 7.5 0 0 0-6-5.5Zm-183.8 80.8a73 73 0 0 1-15.6-14.4c-1.2-1.5-5-1-6.3.8a9.4 9.4 0 0 0-2 3.6c-.4 2.3-.3 4.7-.5 7.2.3 3.2.4 6.5.9 9.7 1.1 7 6 9.6 12.3 6.7 3.4-1.6 6.8-3.3 10.1-5.2 3-1.7 3.7-6.6 1-8.4Zm123.9-72.5a42.4 42.4 0 0 0-17.2-5.7 7 7 0 0 0-6.3 2.6c-.9 1-1.3 2.4-1.8 3.4l3 15.4c.9 3.9 6.4 6 9 3.3 4.1-4.6 9.7-7 14.6-10.5 1.6-1.1 1.9-5 .6-6.4a6.4 6.4 0 0 0-2-2ZM343 234c1.7.3 3.7.1 5.5-.1 3-.4 5.1-3 5-7.8-.1-2.5-.5-7.1-2.6-11.4-1.4-3-5.5-4.5-8.2-3-4.6 2.6-8.2 6-10.8 10.6-1 1.7-.1 5 1.4 6.3a23 23 0 0 0 9.7 5.3Z"/>
</svg>