<?xml version="1.0" encoding="UTF-8"?>
<svg id="Layer_1" xmlns="http://www.w3.org/2000/svg" version="1.1" viewBox="0 0 517.653 247.454">
  <!-- Generator: Adobe Illustrator 29.8.1, SVG Export Plug-In . SVG Version: 2.1.1 Build 2)  -->
  <path d="M458.032,247.66h-1.608c-.061.346-.158.68-.292,1h52.751v-1h-50.85Z" fill="none"/>
  <path d="M138.777,247.66H10.172v1h133.824c-.253-.325-.499-.655-.731-1h-4.489Z" fill="none"/>
  <path d="M403.804,247.66h-217.656c.013.333.019.667.035,1h220.588c-.094-.33-.166-.664-.205-1h-2.762Z" fill="none"/>
  <path d="M143.266,247.66c.232.345.478.675.731,1h42.187c-.017-.333-.022-.667-.035-1h-42.883Z" fill="none"/>
  <path d="M406.566,247.66c.039.336.112.67.205,1h49.36c.134-.32.231-.654.292-1h-49.857Z" fill="none"/>
  <path d="M186.109,240.262c.109-4.206-.318-8.438-.689-12.643-.356-4.018-4.468-6.569-8.315-4.982-3.449,1.422-6.892,3.045-9.967,5.125-2.795,1.896-5.664,3.23-8.919,3.965-3.664.826-7.313,1.749-10.93,2.757-1.331.373-2.598,1.052-3.832,1.708-2.244,1.199-3.682,5.14-2.536,7.368.716,1.389,1.468,2.799,2.344,4.1h42.883c-.095-2.455-.103-4.92-.039-7.398Z" fill="#12c19b"/>
  <path d="M241.166,133.838c-.672-1.957-3.745-3.932-5.662-3.652-3.73.545-7.445,1.207-10.802,1.764-2.744,0-5.126.205-7.466-.042-6.61-.693-11.922,2.27-17.042,5.895-3.064,2.168-3.609,7.382-1.043,10.242.951,1.06,1.964,2.071,3.019,3.029,9.197,8.343,19.957,14.524,29.75,22.05.705.539,1.763.623,2.669.882,2.48.714,6.148-1.18,7.096-3.55,3.893-9.749,3.155-19.738,1.461-29.749-.394-2.336-1.209-4.618-1.979-6.87Z" fill="#12c19b"/>
  <path d="M454.764,242.58c-.685-.636-1.257-1.466-2.057-1.896-5.11-2.764-8.584-7.071-12.165-11.449-3.281-4.006-6.008-8.265-8.679-12.642-2.81-4.613-8.966-4.52-11.599-.07-.948,1.599-1.802,3.257-2.668,4.903-3.895,7.408-5.976,15.577-10.33,22.828-.64,1.066-.836,2.244-.701,3.405h49.857c.315-1.788-.304-3.82-1.659-5.08Z" fill="#12c19b"/>
  <path d="M402.888,90.09c-.542-1.729-1.563-3.426-2.756-4.792-.842-.966-2.352-1.346-3.842-2.138-1.655.542-3.562.819-5.105,1.723-6.824,3.997-13.551,8.159-20.296,12.292-2.826,1.732-3.25,6.433-.592,8.453,7.793,5.918,15.603,11.82,24.385,16.274,4.307,2.185,8.011,1.455,11.555-1.658,2.72-2.395,3.91-5.263,2.956-8.719-1.984-7.181-4.08-14.327-6.306-21.434Z" fill="#12c19b"/>
  <path d="M471.153,200.619c2.908,10.444,7.11,20.303,13.443,29.139,2.759,3.844,9.443,3.847,12.268.141,2.832-3.715,5.523-7.536,8.37-11.233,3.58-4.645,3.647-6.779.549-11.242-1.92-2.761-4.159-5.109-7.251-6.403-5.591-2.345-11.222-4.607-16.909-6.705-1.71-.631-3.659-.602-4.001-.651-4.147-.135-6.903,2.932-6.578,5.564.058.464-.015.954.108,1.391Z" fill="#12c19b"/>
  <path d="M90.505,133.691c-1.384-.231-2.8-.421-4.198-.385-1.889.047-3.77.326-5.311.474-2.705-.438-5.055-1.173-7.382-1.117-2.794.068-5.623.604-8.337,1.309-2.874.75-4.665,3.851-4.177,6.589,1.747,9.886,6.094,18.863,10.235,27.86.821,1.789,3.63,2.847,5.716,3.842,2.148,1.025,5.24-.065,6.323-1.834.741-1.206,1.446-2.432,2.133-3.671,4.618-8.354,5.317-18.069,9.295-26.663,1.015-2.198-1.702-5.976-4.296-6.405Z" fill="#12c19b"/>
  <path d="M271.517,119.84c4.75,3.652,9.564,7.228,14.41,10.752,1.091.791,2.385,1.361,3.659,1.832,2.397.89,6.528-.872,6.94-3.073,1.359-7.263,3.099-14.366,6.992-20.786.443-.733.399-1.785.49-2.695.262-2.652-3.689-6.498-6.342-6.193-.907.105-1.881.076-2.7.413-6.079,2.486-12.319,3.829-18.941,3.172-1.338-.131-2.749.215-4.099.483-3.429.677-6.977,4.684-6.904,8.301.306.736.56,2.216,1.405,3.178,1.505,1.712,3.274,3.221,5.091,4.617Z" fill="#12c19b"/>
  <path d="M129.425,178.56c4.875,3.841,9.962,7.422,14.795,11.307,12.721,10.233,12.736,10.31,21.609-3.69,1.752-2.764,3.178-5.794,4.315-8.857,1.547-4.172-1.906-9.026-6.329-9.108-5.282-.101-10.571-.024-15.856-.024.003.127.003.254.003.382-4.809,0-9.618-.056-14.427.036-1.417.024-2.834.411-4.23.722-1.869.408-3.51,4.332-2.454,5.906.778,1.166,1.499,2.48,2.575,3.326Z" fill="#12c19b"/>
  <path d="M223.467,81.918c-1.327-.41-2.686-1.05-4.027-1.032-6.258.076-12.025-1.434-17.381-4.621-.78-.466-1.737-.636-2.618-.929-2.266-.756-6.012,1.026-6.97,3.46-.502,1.266-1.008,2.677-.948,3.999.301,6.582,2.647,12.663,5.147,18.658.505,1.214,1.684,2.199,2.68,3.161,3.058,2.955,6.975,3.351,10.205,1.12,6.195-4.281,11.268-9.716,15.942-15.521.792-.979.821-2.562,1.022-3.254-.086-2.152-1.755-4.635-3.052-5.04Z" fill="#12c19b"/>
  <path d="M322.578,171.528c3.085,2.981,6.811,5.128,10.898,6.513,2.816.949,5.701.976,8.037-1.121,2.885-2.598,5.555-5.768,4.093-9.828-2.241-6.21-4.374-12.426-5.961-18.838-.328-1.32-1.11-2.678-2.068-3.648-.925-.94-2.345-1.4-3.318-1.945-1.262.252-2.363.175-3.07.661-5.057,3.473-10.087,6.984-15.006,10.644-2.282,1.699-2.942,6.735-1.098,9.14,2.285,2.972,4.794,5.816,7.491,8.423Z" fill="#12c19b"/>
  <path d="M454.991,168.461c7.16-2.413,14.392-4.415,21.97-5.048.448-.038.863-.367,1.311-.516,3.174-1.038,4.795-5.141,3.007-8.006-4.819-7.729-11.307-13.514-20.387-16.114-.86-.245-1.86-.032-3.084-.032-.961.644-2.666,1.16-3.162,2.221-3.332,7.117-5.697,14.572-6.605,22.368-.352,3.037,3.92,6.149,6.951,5.127Z" fill="#12c19b"/>
  <path d="M460.185,74.172c-3.184-6.12-6.919-11.959-10.602-17.808-1.735-2.755-6.905-3-8.459-.323-3.24,5.584-6.357,11.255-9.086,17.092-1.878,4.005,1.615,9.929,6.074,10.818,5.881,1.171,11.806,2.138,17.723,3.16,2.61.448,5.893-2.231,5.674-4.794-.236-2.75-.117-5.82-1.324-8.144Z" fill="#12c19b"/>
  <path d="M399.27,161.546c0-.463.047-.944-.068-1.384-.466-1.78-.825-3.607-1.509-5.302-2.252-5.57-7.573-7.286-12.52-4.131-4.363,2.782-8.181,6.173-11.524,10.086-2.353,2.75-2.149,7.677.545,10.165,5.861,5.416,12.856,9.177,19.81,12.962,1.657.9,5.368-1.16,5.522-3.039.262-3.205.336-6.421.492-9.638-.251-.003-.498-.009-.746-.015,0-3.234,0-6.471-.003-9.705Z" fill="#12c19b"/>
  <path d="M37.637,211.053c-2.345-.11-4.696-.024-7.044-.024-.006-.122-.012-.244-.018-.369-3.743.331-7.498.539-11.214,1.051-1.824.247-3.598,1.003-5.351,1.647-2.591.953-3.838,4.806-2.357,7.164.743,1.191,1.475,2.418,2.384,3.472,5.931,6.848,13.745,11.324,21.006,16.475.725.515,2.875-.086,3.737-.863,2.138-1.944,3.287-4.69,3.524-7.533.435-5.16.557-10.35.714-15.531.086-2.787-2.443-5.351-5.38-5.488Z" fill="#12c19b"/>
  <path d="M386.534,27.612c2.613,3.253,5.351,6.429,8.254,9.437,2.24,2.324,4.622,4.616,7.297,6.42,3.369,2.272,7.149,1.146,8.242-2.139,1.878-5.65,3.294-11.452,4.631-17.252.267-1.16-.379-2.826-1.167-3.845-2.666-3.444-6.148-5.65-11.901-5.572-1.25.141-3.606.312-5.925.69-1.852.303-3.683.785-5.487,1.305-5.069,1.472-7.116,7.006-3.943,10.956Z" fill="#12c19b"/>
  <path d="M82.765,209.116c4.902,5.751,11.678,9.042,17.781,13.209,1.087.744,3.934.154,5.213-.868,1.889-1.51,3.252-3.372,3.26-5.844.006-2.303-.282-4.609-.442-6.913-.09.003-.183.003-.279.006,0-1.853.058-3.706-.015-5.556-.07-1.847-.198-3.7-.427-5.53-.622-4.975-4.989-7.56-8.976-4.891-4.704,3.148-9.67,5.402-15.128,6.735-.875.215-1.973.584-2.412,1.249-.709,1.075-1.54,2.602-1.27,3.671.433,1.702,1.523,3.358,2.694,4.731Z" fill="#12c19b"/>
  <path d="M233.549,209.254c4.907,3.586,9.614,7.377,14.071,11.486.331.312.805.464,1.195.724,2.686,1.781,7.51-.079,7.871-3.128.328-2.754.441-5.529.645-8.294-.05-.003-.098-.009-.148-.012.115-2.316.479-4.658.275-6.945-.207-2.275-.787-4.571-1.556-6.732-1.538-4.319-5.963-6.209-10.288-4.658-4.984,1.79-9.022,4.892-12.512,8.747-2.198,2.421-2.159,6.907.447,8.811Z" fill="#12c19b"/>
  <path d="M330.164,39.118c-1.894-.21-3.803-.302-5.842-.458-2.253.248-4.648.359-6.979.802-5.607,1.06-8.126,7.436-4.898,12.155,3.212,4.704,6.349,9.466,9.652,14.113,1.077,1.518,2.497,2.821,3.891,4.085,1.541,1.404,5.236.97,6.5-.662.582-.749,1.282-1.476,1.623-2.333,2.893-7.205,3.752-14.617,2.018-22.235-.615-2.704-3.321-5.172-5.963-5.468Z" fill="#12c19b"/>
  <path d="M146.374,119.853c-5.88-4.048-11.054-8.775-15.531-14.311-1.211-1.494-5.078-.989-6.382.75-.829,1.105-1.74,2.357-1.971,3.657-.409,2.292-.336,4.673-.472,7.159.276,3.161.367,6.471.883,9.716,1.112,7.006,5.91,9.576,12.298,6.642,3.428-1.581,6.817-3.275,10.098-5.139,3.044-1.727,3.72-6.657,1.076-8.473Z" fill="#12c19b"/>
  <path d="M270.257,47.446c-5.221-3.396-11.161-4.799-17.2-5.715-2.399-.367-4.665.704-6.254,2.574-.857,1.01-1.266,2.389-1.784,3.411,1.036,5.345,1.904,10.396,3.011,15.392.857,3.865,6.398,6.087,8.885,3.311,4.182-4.664,9.795-7.083,14.728-10.558,1.569-1.107,1.857-4.884.547-6.407-.603-.704-1.171-1.514-1.934-2.008Z" fill="#12c19b"/>
  <path d="M343.008,233.915c1.722.432,3.672.204,5.482-.018,2.924-.353,5.114-2.952,5.026-7.825-.123-2.502-.553-7.078-2.602-11.364-1.406-2.943-5.526-4.47-8.242-2.955-4.547,2.54-8.146,6.029-10.731,10.555-.968,1.696-.175,4.94,1.401,6.342,2.821,2.505,6.047,4.35,9.666,5.264Z" fill="#12c19b"/>
</svg>