<?xml version="1.0" encoding="UTF-8"?>
<svg id="Layer_1" xmlns="http://www.w3.org/2000/svg" xmlns:xlink="http://www.w3.org/1999/xlink" version="1.1" viewBox="0 0 400 400">
  <!-- Generator: Adobe Illustrator 29.8.1, SVG Export Plug-In . SVG Version: 2.1.1 Build 2)  -->
  <defs>
    <clipPath id="clippath">
      <path d="M130.096,94.835c0,1.776-1.563,3.7-3.49,3.7s-3.49-1.924-3.49-3.7,1.563-3.216,3.49-3.216,3.49,1.44,3.49,3.216Z" clip-rule="evenodd" fill="#fff"/>
    </clipPath>
    <clipPath id="clippath-1">
      <path d="M130.712,106.623h.255c.964,0,1.746-.782,1.746-1.747-.001-3.134-2.54-5.675-5.672-5.676h-.87c-3.133,0-5.673,2.541-5.674,5.676,0,.964.782,1.746,1.746,1.746h.287s8.18,0,8.18,0Z" clip-rule="evenodd" fill="#fff"/>
    </clipPath>
  </defs>
  <rect width="399.638" height="399.638" fill="#fff"/>
  <path d="M188.134,318.91c.95-1.31,2.386-1.193,2.991-.101.119.215.249.426.349.65.1.225.187.458.247.696.49,1.917,1.194,3.756,2.001,5.559.51,1.138.783,2.344.859,3.578.036.601-.08,1.222-.198,1.82-.127.645-1.064,1.224-1.721,1.106-.36-.065-.731-.131-1.066-.271-.908-.38-1.808-.783-2.696-1.208-.789-.377-1.596-.568-2.479-.632-.971-.071-1.943-.296-2.884-.563-1.049-.298-1.479-1.491-.898-2.377.608-.927,1.21-1.868,1.917-2.717,1.269-1.524,2.402-3.12,3.2-4.946.145-.333.394-.62.378-.595" fill="#12c19b" fill-rule="evenodd"/>
  <path d="M159.071,340.341c-.775-.43-1.639-.897-2.488-1.39-.436-.253-.75-1.147-.577-1.649.2-.577.397-1.168.687-1.701,1.245-2.287,2.681-4.415,5.026-5.747.57-.323,1.621-.112,2.014.432.144.198.347.386.405.609.805,3.095,2.022,6.076,2.576,9.239.063.363.11.73.136,1.097.07.99-.87,1.95-1.841,1.892-1.622-.098-3.179-.36-4.42-1.567-.439-.428-.959-.771-1.519-1.214" fill="#12c19b" fill-rule="evenodd"/>
  <path d="M207.97,307.945c.453-.573.879-1.172,1.37-1.713.323-.355.713-.664,1.116-.928,1.503-.983,2.87-.688,3.673.883.613,1.201,1.238,2.374,2.145,3.386.237.265.397.61.547.939.448.979-.046,2.345-.992,2.846-.659.349-1.35.543-2.097.573-1.599.065-3.161-.204-4.716-.521-.868-.178-1.527-.735-2.105-1.385-.65-.733-.724-1.952-.157-2.71.366-.487.754-.958,1.131-1.435l.082.065Z" fill="#12c19b" fill-rule="evenodd"/>
  <path d="M203.514,330.389c1.051-.964,2.389-2.205,3.745-3.426.409-.368,1.3-.246,1.658.206.225.283.523.573.594.902.589,2.736,1.164,5.473,2.033,8.141.21.645-.583,1.487-1.277,1.477-.121-.001-.249.043-.361.014-1.649-.429-3.296-.867-4.942-1.306-.117-.031-.225-.095-.334-.149-2.817-1.397-2.446-3.79-1.116-5.858" fill="#12c19b" fill-rule="evenodd"/>
  <path d="M188.769,363.243c-.338-.218-.765-.463-1.157-.757-.29-.218-.548-.484-.792-.754-.459-.505-.401-1.714.16-2,2.198-1.117,3.909-2.99,6.198-3.955.34-.143.681-.28,1.027-.407.506-.187,1.311.087,1.583.642.264.539.665,1.207.543,1.705-.61,2.505-1.175,5.039-2.417,7.34-.343.638-1.208.984-1.914.675-.666-.292-1.329-.638-1.908-1.073-.483-.363-.842-.891-1.322-1.415" fill="#12c19b" fill-rule="evenodd"/>
  <path d="M180.718,345.308c-1.061-.839-2.136-1.662-3.181-2.521-.875-.719-.784-2.26.202-2.868.724-.446,1.5-.84,2.299-1.128,4.046-1.457,4.036-1.438,4.936,2.674.342,1.562.785,3.102,1.143,4.662.079.344.012.727-.021,1.089-.043.49-1.006,1.032-1.448.819-.331-.158-.678-.304-.966-.524-.981-.744-1.937-1.519-2.903-2.282-.021.026-.041.052-.061.079" fill="#12c19b" fill-rule="evenodd"/>
  <path d="M223.885,340.894c-.648-.565-.722-1.685-.296-2.168.16-.181.291-.407.486-.538,1.131-.762,2.005-1.764,2.859-2.812.364-.447.951-.733,1.478-1.019.521-.283,1.371-.055,1.628.425.806,1.508,1.731,2.937,2.726,4.326.201.28.238.689.313,1.045.143.689-.355,1.573-.999,1.767-2.692.811-5.304.705-7.792-.714-.208-.118-.383-.296-.403-.312" fill="#12c19b" fill-rule="evenodd"/>
  <path d="M151.542,349.214c.154-.11.419-.433.741-.507,1.905-.442,3.832-.743,5.8-.624,1.026.062,1.764.778,1.909,1.884.047.36.128.754.033,1.087-.466,1.643-.978,3.279-1.99,4.687-.204.283-.537.492-.847.672-.593.348-1.652.109-1.993-.414-.133-.203-.301-.393-.385-.616-.578-1.526-1.513-2.772-2.808-3.769-.278-.214-.452-.566-.657-.865-.2-.294-.137-1.077.197-1.535" fill="#12c19b" fill-rule="evenodd"/>
  <path d="M211.884,355.627c-.48-.379-.975-.742-1.437-1.143-.579-.503-.684-1.432-.218-1.985.865-1.028,1.723-2.064,2.642-3.043.505-.54,1.181-.913,1.931-.963.301-.019.837.206.903.428.657,2.221,1.536,4.394,1.648,6.745.017.361-.031.729-.07,1.091-.076.719-.95,1.301-1.633,1.076-.462-.152-.946-.285-1.359-.53-.842-.496-1.644-1.061-2.462-1.598.019-.026.037-.052.056-.078" fill="#12c19b" fill-rule="evenodd"/>
  <path d="M195.395,343.46c.346-.507.666-1.035,1.047-1.514.409-.514,1-.678,1.642-.681.435-.003,1.125.343,1.229.677.585,1.874,1.455,3.676,1.529,5.682.018.479-.028,1.004-.218,1.43-.12.267-.545.449-.869.556-.201.066-.491-.038-.708-.137-1.357-.621-2.763-.968-4.262-1.087-1.271-.1-1.755-1.358-1.065-2.498.254-.419.532-.827.822-1.223.29-.398.607-.774.912-1.161-.02-.015-.04-.03-.059-.045" fill="#12c19b" fill-rule="evenodd"/>
  <path d="M177.68,359.973c-.425.482-.792.976-1.241,1.376-.255.227-.639.335-.983.427-.541.145-1.401-.369-1.406-.864-.016-1.835-.301-3.617-.838-5.374-.242-.789.684-1.681,1.574-1.546.96.145,1.914.341,2.858.567,1.757.423,2.313,1.707,1.415,3.304-.415.74-.927,1.425-1.378,2.11" fill="#12c19b" fill-rule="evenodd"/>
  <rect x="290.032" y="235.313" width="64.579" height="20.067" rx="10.033" ry="10.033" fill="#081590"/>
  <path d="M238.149,198.098h74.01s10.162-.21,10.162,8.326,0,6.594,0,6.594" fill="none" stroke="#081590" stroke-miterlimit="10" stroke-width="1.097"/>
  <path d="M165.631,198.098h74.966s9.207-.21,9.207,8.326,0,6.594,0,6.594" fill="none" stroke="#081590" stroke-miterlimit="10" stroke-width="1.097"/>
  <path d="M93.006,91.473c.254,1.598-.843,2.531-2.044,2.186-.236-.068-.478-.125-.706-.212-.229-.088-.456-.191-.667-.317-1.702-1.01-3.5-1.812-5.346-2.517-1.165-.444-2.211-1.104-3.138-1.923-.451-.399-.807-.921-1.147-1.427-.366-.546-.113-1.618.435-1.999.301-.209.61-.424.945-.562.91-.373,1.832-.725,2.76-1.052.825-.291,1.53-.726,2.2-1.306.737-.636,1.583-1.165,2.437-1.641.953-.531,2.101.009,2.316,1.046.225,1.086.466,2.176.566,3.276.18,1.975.507,3.905,1.235,5.76.133.338.16.717.154.688" fill="#12c19b" fill-rule="evenodd"/>
  <path d="M98.402,55.768c.852-.244,1.793-.525,2.742-.777.488-.129,1.341.28,1.574.758.266.55.545,1.106.717,1.689.737,2.497,1.226,5.018.51,7.618-.175.632-1.067,1.225-1.73,1.119-.242-.038-.518-.028-.717-.144-2.758-1.619-5.726-2.867-8.354-4.712-.301-.212-.594-.439-.871-.68-.749-.65-.764-1.994-.036-2.639,1.216-1.078,2.502-1.993,4.233-2.018.613-.008,1.223-.132,1.933-.216" fill="#12c19b" fill-rule="evenodd"/>
  <path d="M86.733,113.253c.085.726.207,1.451.242,2.18.023.479-.035.974-.133,1.445-.368,1.758-1.543,2.516-3.221,1.973-1.283-.416-2.554-.803-3.911-.877-.354-.02-.712-.15-1.051-.277-1.009-.375-1.626-1.691-1.311-2.714.22-.713.57-1.338,1.077-1.888,1.084-1.177,2.38-2.091,3.703-2.966.74-.488,1.599-.56,2.467-.509.977.059,1.892.868,2.027,1.805.085.603.144,1.21.215,1.815l-.104.012Z" fill="#12c19b" fill-rule="evenodd"/>
  <path d="M74.014,94.231c-.061,1.425-.131,3.249-.225,5.071-.029.549-.745,1.093-1.318,1.027-.359-.041-.775-.036-1.058-.218-2.351-1.518-4.693-3.047-7.194-4.319-.604-.308-.639-1.464-.141-1.947.086-.085.146-.207.246-.265,1.469-.862,2.943-1.717,4.418-2.571.105-.06.226-.092.341-.131,2.98-1.004,4.41.95,4.932,3.353" fill="#12c19b" fill-rule="evenodd"/>
  <path d="M61.209,60.574c.393-.085.869-.214,1.354-.283.359-.051.73-.045,1.093-.027.681.033,1.496.928,1.301,1.527-.764,2.344-.65,4.878-1.586,7.179-.14.341-.284.68-.438,1.014-.225.49-.989.866-1.573.665-.568-.195-1.323-.383-1.589-.822-1.34-2.203-2.732-4.394-3.482-6.899-.209-.694.159-1.55.876-1.831.678-.264,1.39-.489,2.108-.591.598-.085,1.226.034,1.936.066" fill="#12c19b" fill-rule="evenodd"/>
  <rect x="96.444" y="100.521" width="11.967" height="11.687" transform="translate(-11.686 12.647) rotate(-6.685)" fill="#12c19b"/>
  <path d="M105.758,110.932c-.371-.033-1.157.056-1.821-.189-1.95-.717-3.851-1.565-5.769-2.368-.11-.046-.196-.146-.298-.213-.464-.308-.624-1.23-.274-1.638.237-.278.462-.571.734-.812,1.282-1.139,2.59-2.248,3.864-3.395,1.318-1.186,2.646-.473,2.982.58.635,1.992,1.685,3.796,2.436,5.731.469,1.208-.217,2.261-1.854,2.304" fill="none" fill-rule="evenodd"/>
  <path d="M79.584,67.563c1.344-.157,2.686-.335,4.032-.466,1.127-.11,2.152,1.044,1.885,2.171-.196.827-.467,1.655-.828,2.423-1.831,3.891-1.837,3.871-5.382,1.6-1.347-.862-2.748-1.638-4.105-2.488-.299-.187-.522-.506-.756-.785-.316-.376-.018-1.442.445-1.603.345-.122.694-.265,1.053-.313,1.22-.167,2.444-.296,3.667-.439-.004-.033-.008-.066-.012-.099" fill="#12c19b" fill-rule="evenodd"/>
  <path d="M52.181,101.208c.858-.059,1.702.681,1.743,1.323.015.241.082.494.037.724-.261,1.338-.17,2.665-.033,4.01.059.574-.154,1.191-.325,1.765-.168.568-.931,1.008-1.452.851-1.636-.496-3.301-.853-4.987-1.131-.34-.056-.655-.319-.96-.518-.588-.386-.861-1.363-.543-1.956,1.33-2.477,3.252-4.249,6.015-5.005.23-.064.48-.061.505-.064" fill="#12c19b" fill-rule="evenodd"/>
  <path d="M97.452,44.171c-.031.187.01.602-.165.882-1.035,1.66-2.184,3.235-3.66,4.543-.769.682-1.798.697-2.682.018-.288-.221-.624-.443-.792-.745-.832-1.491-1.627-3.01-1.907-4.722-.056-.344.032-.728.124-1.074.174-.665,1.091-1.245,1.702-1.116.237.05.491.065.708.163,1.487.67,3.03.89,4.651.679.347-.045.72.08,1.076.147.349.066.858.665.946,1.225" fill="#12c19b" fill-rule="evenodd"/>
  <path d="M50.249,82.304c.608-.071,1.214-.165,1.824-.208.765-.054,1.496.529,1.558,1.249.116,1.338.241,2.678.284,4.02.024.739-.19,1.481-.685,2.046-.2.226-.738.446-.941.336-2.035-1.106-4.193-2.021-5.935-3.604-.267-.244-.493-.537-.722-.821-.454-.562-.248-1.592.394-1.916.434-.219.871-.467,1.335-.586.947-.245,1.912-.412,2.871-.611.005.032.011.063.016.095" fill="#12c19b" fill-rule="evenodd"/>
  <path d="M70.512,79.248c.113.603.261,1.203.33,1.811.074.653-.228,1.186-.679,1.643-.306.309-1.039.553-1.348.39-1.739-.911-3.628-1.57-5.099-2.936-.351-.326-.69-.73-.857-1.165-.104-.274.068-.703.221-1.008.095-.189.373-.32.598-.404,1.398-.521,2.639-1.269,3.782-2.245.969-.828,2.201-.281,2.519,1.013.117.476.208.961.284,1.446.076.486.118.977.176,1.466.025-.004.05-.007.073-.01" fill="#12c19b" fill-rule="evenodd"/>
  <path d="M71.362,55.045c-.04-.642-.13-1.251-.095-1.851.02-.34.215-.689.393-.997.28-.485,1.252-.73,1.606-.383,1.309,1.286,2.771,2.344,4.392,3.207.729.387.705,1.672-.02,2.206-.781.576-1.595,1.112-2.422,1.62-1.541.944-2.843.428-3.337-1.336-.229-.817-.352-1.664-.518-2.466" fill="#12c19b" fill-rule="evenodd"/>
  <rect x="57.523" y="175.481" width="138.636" height="46.568" rx="12" ry="12" fill="#081590"/>
  <rect x="57.523" y="287.065" width="138.636" height="46.568" rx="12" ry="12" fill="#081590"/>
  <line x1="126.719" y1="144.916" x2="126.719" y2="165.545" fill="none" stroke="#081590" stroke-miterlimit="10" stroke-width="4.7"/>
  <path d="M175.96,196.06c.944,0,1.805.615,2.106,1.504h-4.198c.287-.875,1.135-1.504,2.092-1.504ZM180.158,198.33c0-1.094-.424-2.133-1.203-2.926-.779-.793-1.819-1.231-2.913-1.231h-.055c-1.135.014-2.215.465-3.022,1.272-.807.807-1.258,1.873-1.272,3.008-.014,1.162.438,2.256,1.258,3.091.834.834,1.928,1.299,3.091,1.299h0c1.532,0,2.967-.82,3.747-2.133l.096-.164-1.723-.848-.082.137c-.424.711-1.176,1.121-2.01,1.121-1.053,0-1.969-.697-2.256-1.709h6.345v-.916ZM169.382,192.709c-.752,0-1.354-.602-1.354-1.354s.602-1.354,1.354-1.354,1.354.602,1.354,1.354c.014.738-.602,1.354-1.354,1.354ZM168.343,202.678h2.079v-8.328h-2.079v8.328ZM164.364,190.18h2.079v12.512h-2.079v-12.512ZM160.384,202.678h2.079v-12.499h-2.079v12.499ZM154.901,200.805c-1.258,0-2.297-1.026-2.297-2.284s1.026-2.284,2.297-2.284,2.297,1.026,2.297,2.284-1.026,2.284-2.297,2.284ZM154.901,194.173c-2.407,0-4.349,1.942-4.349,4.335s1.955,4.349,4.349,4.349,4.349-1.942,4.349-4.335-1.942-4.349-4.349-4.349ZM146.026,194.186c-.109-.014-.219-.014-.328-.014-1.053,0-2.051.424-2.762,1.19-.711-.752-1.709-1.19-2.749-1.19-2.092,0-3.788,1.696-3.788,3.761v4.745h2.038v-4.677c0-.862.711-1.655,1.545-1.737.055,0,.123-.014.178-.014.944,0,1.709.766,1.709,1.709v4.731h2.079v-4.704c0-.862.711-1.655,1.545-1.737.055,0,.123-.014.178-.014.944,0,1.709.766,1.723,1.696v4.745h2.079v-4.677c0-.957-.356-1.86-.985-2.571-.643-.725-1.518-1.162-2.461-1.244Z" fill="#fff" fill-rule="evenodd"/>
  <path d="M112.74,198.553c0-2.436-1.18-4.359-3.436-4.359s-3.636,1.923-3.636,4.34c0,2.865,1.618,4.311,3.94,4.311,1.133,0,1.989-.257,2.636-.619v-1.904c-.647.324-1.389.523-2.332.523-.923,0-1.742-.324-1.846-1.447h4.653c0-.124.019-.619.019-.847h.001ZM108.042,197.649c0-1.076.657-1.523,1.257-1.523.58,0,1.199.447,1.199,1.523h-2.456ZM101.999,194.195c-.933,0-1.532.438-1.865.742l-.124-.59h-2.098v11.097l2.379-.504.01-2.694c.343.248.847.599,1.685.599,1.704,0,3.255-1.366,3.255-4.388-.01-2.76-1.58-4.264-3.246-4.264h.005ZM101.428,200.752c-.561,0-.894-.2-1.123-.447l-.01-3.531c.248-.276.59-.466,1.133-.466.866,0,1.466.971,1.466,2.217,0,1.275-.59,2.227-1.466,2.227ZM94.638,193.633l2.389-.513v-1.932l-2.389.504v1.941ZM94.638,194.356h2.389v8.328h-2.389v-8.328ZM92.077,195.06l-.152-.704h-2.056v8.328h2.379v-5.645c.561-.733,1.513-.599,1.808-.495v-2.189c-.305-.114-1.418-.324-1.98.704h0ZM87.319,192.286l-2.322.496-.01,7.623c0,1.408,1.057,2.446,2.465,2.446.78,0,1.351-.143,1.666-.315v-1.932c-.305.124-1.808.561-1.808-.847v-3.374h1.808v-2.027h-1.809l.01-2.07ZM80.885,196.769c0-.371.305-.513.809-.513.823.018,1.631.226,2.36.609v-2.232c-.79-.315-1.57-.438-2.36-.438-1.932,0-3.217,1.009-3.217,2.694,0,2.627,3.617,2.208,3.617,3.341,0,.438-.381.58-.914.58-.79,0-1.799-.324-2.598-.762v2.265c.885.381,1.78.538,2.598.538,1.98,0,3.341-.98,3.341-2.684-.01-2.836-3.636-2.332-3.636-3.398h0Z" fill="#fff" fill-rule="evenodd"/>
  <path d="M341.219,244.472c.41,0,.785.268.916.654h-1.826c.125-.381.494-.654.91-.654ZM343.045,245.46c0-.476-.184-.928-.523-1.273-.339-.345-.791-.535-1.267-.535h-.024c-.494.006-.964.202-1.314.553-.351.351-.547.815-.553,1.309-.006.506.19.981.547,1.344.363.363.839.565,1.344.565h0c.666,0,1.291-.357,1.63-.928l.042-.071-.749-.369-.036.059c-.184.309-.512.488-.874.488-.458,0-.856-.303-.981-.743h2.76v-.398ZM338.358,243.015c-.327,0-.589-.262-.589-.589s.262-.589.589-.589.589.262.589.589c.006.321-.262.589-.589.589ZM337.906,247.351h.904v-3.622h-.904v3.622ZM336.175,241.915h.904v5.442h-.904v-5.442ZM334.444,247.351h.904v-5.436h-.904v5.436ZM332.059,246.536c-.547,0-.999-.446-.999-.993s.446-.993.999-.993.999.446.999.993-.446.993-.999.993ZM332.059,243.652c-1.047,0-1.891.845-1.891,1.885s.851,1.891,1.891,1.891,1.891-.845,1.891-1.885-.845-1.891-1.891-1.891ZM328.199,243.658c-.048-.006-.095-.006-.143-.006-.458,0-.892.184-1.201.517-.309-.327-.743-.517-1.195-.517-.91,0-1.648.738-1.648,1.636v2.064h.886v-2.034c0-.375.309-.72.672-.755.024,0,.054-.006.077-.006.41,0,.743.333.743.743v2.058h.904v-2.046c0-.375.309-.72.672-.755.024,0,.054-.006.077-.006.41,0,.743.333.749.738v2.064h.904v-2.034c0-.416-.155-.809-.428-1.118-.28-.315-.66-.506-1.071-.541Z" fill="#fff" fill-rule="evenodd"/>
  <path d="M316.5,245.557c0-1.06-.513-1.896-1.495-1.896s-1.581.836-1.581,1.888c0,1.246.704,1.875,1.714,1.875.493,0,.865-.112,1.147-.269v-.828c-.281.141-.604.228-1.014.228-.402,0-.758-.141-.803-.629h2.024c0-.054.008-.269.008-.368h0ZM314.457,245.164c0-.468.286-.662.547-.662.252,0,.522.194.522.662h-1.068ZM311.829,243.661c-.406,0-.666.19-.811.323l-.054-.257h-.912v4.827l1.035-.219.004-1.172c.149.108.368.261.733.261.741,0,1.416-.594,1.416-1.908-.004-1.201-.687-1.855-1.412-1.855h.002ZM311.58,246.513c-.244,0-.389-.087-.489-.194l-.004-1.536c.108-.12.257-.203.493-.203.377,0,.637.422.637.964,0,.555-.257.969-.637.969ZM308.627,243.417l1.039-.223v-.84l-1.039.219v.844ZM308.627,243.731h1.039v3.622h-1.039v-3.622ZM307.513,244.038l-.066-.306h-.894v3.622h1.035v-2.455c.244-.319.658-.261.787-.215v-.952c-.133-.05-.617-.141-.861.306h0ZM305.444,242.831l-1.01.216-.004,3.316c0,.613.46,1.064,1.072,1.064.339,0,.588-.062.724-.137v-.84c-.133.054-.787.244-.787-.368v-1.467h.787v-.882h-.787l.005-.9ZM302.645,244.781c0-.162.133-.223.352-.223.358.008.709.098,1.026.265v-.971c-.344-.137-.683-.19-1.026-.19-.84,0-1.399.439-1.399,1.172,0,1.143,1.573.96,1.573,1.453,0,.19-.166.252-.397.252-.344,0-.782-.141-1.13-.331v.985c.385.166.774.234,1.13.234.861,0,1.453-.426,1.453-1.167-.004-1.233-1.581-1.014-1.581-1.478h0Z" fill="#fff" fill-rule="evenodd"/>
  <line x1="319.753" y1="239.753" x2="319.753" y2="250.895" fill="none" opacity=".38" stroke="#fff" stroke-miterlimit="10" stroke-width=".204"/>
  <line x1="126.841" y1="198.781" x2="126.841" y2="253.139" fill="none" stroke="#081590" stroke-miterlimit="10" stroke-width="4.7"/>
  <line x1="127.021" y1="274.017" x2="127.021" y2="288.162" fill="none" stroke="#081590" stroke-miterlimit="10" stroke-width="4.7"/>
  <path d="M129.533,166.268l2.082-2.874c.556-.768.008-1.842-.94-1.842h-3.331c-2.95,0-4.658,3.345-2.927,5.734l1.249,1.724c.464.64,1.417.64,1.881,0l1.249-1.724c1.731-2.389.024-5.734-2.927-5.734h-3.331c-.948,0-1.497,1.075-.94,1.842l2.082,2.874c1.443,1.992,4.411,1.992,5.853,0Z" fill="#081590"/>
  <line x1="322.064" y1="228.478" x2="322.064" y2="235.935" fill="none" stroke="#081590" stroke-miterlimit="10" stroke-width="1.097"/>
  <g>
    <path d="M82.021,314.419h-1.726v-3.08l-2.696-4.794h1.917l1.692,3.136h.022l1.624-3.136h1.861l-2.696,4.783v3.091Z" fill="#fff"/>
    <path d="M87.323,314.554c-.579,0-1.076-.126-1.489-.378s-.731-.611-.953-1.077-.333-1.015-.333-1.647c0-.639.111-1.188.333-1.647.222-.458.54-.814.953-1.066s.91-.378,1.489-.378,1.075.126,1.489.378.731.607.953,1.066c.222.459.333,1.008.333,1.647,0,.632-.111,1.181-.333,1.647s-.54.825-.953,1.077-.91.378-1.489.378ZM87.323,313.234c.331,0,.586-.103.767-.31.18-.207.271-.495.271-.863v-1.207c0-.376-.09-.666-.271-.869-.181-.203-.437-.305-.767-.305-.324,0-.577.102-.762.305-.184.203-.276.493-.276.869v1.207c0,.368.092.656.276.863.185.207.438.31.762.31Z" fill="#fff"/>
    <path d="M94.779,314.419v-.993h-.057c-.098.301-.276.564-.536.79-.26.226-.634.338-1.123.338-.602,0-1.06-.203-1.376-.609-.316-.406-.474-.981-.474-1.726v-3.723h1.67v3.576c0,.361.065.639.197.834.131.196.348.293.648.293.173,0,.34-.032.502-.096s.293-.16.395-.288.152-.286.152-.474v-3.847h1.669v5.922h-1.669Z" fill="#fff"/>
    <path d="M99.675,314.419h-1.669v-5.922h1.669v1.286h.057c.045-.218.127-.425.248-.621.12-.195.284-.355.491-.479.207-.124.464-.187.772-.187h.293v1.557h-.417c-.323,0-.592.028-.807.084-.214.056-.374.148-.479.276-.105.128-.158.309-.158.542v3.463Z" fill="#fff"/>
    <path d="M105.225,314.419v-8.347h1.669v3.417h.057c.083-.331.272-.602.569-.812.297-.21.638-.316,1.021-.316.504,0,.923.119,1.258.355.334.237.588.585.761,1.043s.26,1.023.26,1.692-.087,1.235-.26,1.698-.427.812-.761,1.049c-.335.237-.754.355-1.258.355-.383,0-.724-.107-1.021-.321-.297-.214-.487-.483-.569-.807h-.057v.993h-1.669ZM107.988,313.201c.316,0,.577-.113.784-.338.207-.226.31-.522.31-.891v-1.026c0-.376-.104-.675-.31-.897-.207-.222-.468-.333-.784-.333-.21,0-.398.034-.564.102-.166.068-.295.167-.389.299-.094.131-.141.288-.141.468v1.749c0,.181.047.337.141.468.094.132.224.231.389.299s.354.102.564.102Z" fill="#fff"/>
    <path d="M117.384,314.419h-.925c-.203,0-.393-.051-.57-.152s-.318-.252-.423-.451c-.105-.199-.158-.438-.158-.716v-.146l.361.429h-.406c-.09.383-.29.675-.598.874-.308.199-.688.299-1.139.299-.594,0-1.049-.16-1.365-.479-.316-.319-.474-.735-.474-1.246,0-.421.104-.767.311-1.038.207-.271.5-.474.88-.609.379-.135.829-.203,1.348-.203h.937v-.372c0-.286-.075-.514-.226-.683-.15-.169-.402-.254-.756-.254-.331,0-.594.072-.79.214-.196.143-.357.305-.485.485l-.992-.88c.24-.353.545-.629.914-.829.368-.199.861-.299,1.478-.299.835,0,1.464.186,1.89.559.425.372.637.908.637,1.607v2.594h.553v1.297ZM115.162,311.926h-.812c-.324,0-.568.057-.733.169-.166.113-.248.278-.248.496v.169c0,.21.067.369.203.474.136.105.327.158.576.158.188,0,.357-.026.507-.079s.272-.135.367-.248c.094-.113.141-.26.141-.44v-.7Z" fill="#fff"/>
    <path d="M120.17,314.419h-1.669v-5.922h1.669v1.004h.068c.105-.309.289-.576.553-.801.263-.226.627-.338,1.094-.338.602,0,1.06.205,1.376.615.316.41.474.987.474,1.731v3.711h-1.669v-3.576c0-.376-.06-.658-.18-.846-.121-.188-.335-.282-.643-.282-.181,0-.352.032-.513.096-.162.064-.295.16-.4.288-.105.128-.158.29-.158.485v3.835Z" fill="#fff"/>
    <path d="M125.224,314.419v-8.347h1.669v4.929h.068l.733-1.094,1.185-1.41h1.85l-1.974,2.268,2.2,3.655h-1.985l-1.331-2.504-.745.835v1.669h-1.669Z" fill="#fff"/>
    <path d="M139.696,314.419h-.925c-.203,0-.393-.051-.57-.152s-.318-.252-.423-.451c-.105-.199-.158-.438-.158-.716v-.146l.361.429h-.406c-.09.383-.29.675-.598.874-.308.199-.688.299-1.139.299-.594,0-1.049-.16-1.365-.479-.316-.319-.474-.735-.474-1.246,0-.421.104-.767.311-1.038.207-.271.5-.474.88-.609.379-.135.829-.203,1.348-.203h.937v-.372c0-.286-.075-.514-.226-.683-.15-.169-.402-.254-.756-.254-.331,0-.594.072-.79.214-.196.143-.357.305-.485.485l-.992-.88c.24-.353.545-.629.914-.829.368-.199.861-.299,1.478-.299.835,0,1.464.186,1.89.559.425.372.637.908.637,1.607v2.594h.553v1.297ZM137.474,311.926h-.812c-.324,0-.568.057-.733.169-.166.113-.248.278-.248.496v.169c0,.21.067.369.203.474.136.105.327.158.576.158.188,0,.357-.026.507-.079s.272-.135.367-.248c.094-.113.141-.26.141-.44v-.7Z" fill="#fff"/>
    <path d="M143.205,314.554c-.888,0-1.57-.28-2.047-.84-.478-.56-.716-1.314-.716-2.262s.238-1.699.716-2.256c.478-.557,1.16-.835,2.047-.835.602,0,1.104.135,1.506.406.402.271.69.65.863,1.139l-1.354.587c-.053-.226-.162-.417-.327-.576-.166-.158-.395-.237-.688-.237-.338,0-.594.111-.767.333-.173.222-.26.521-.26.896v1.105c0,.369.086.666.26.891.173.226.429.338.767.338.331,0,.577-.09.739-.271.162-.181.284-.387.367-.621l1.297.564c-.195.564-.5.978-.914,1.241s-.91.395-1.489.395Z" fill="#fff"/>
    <path d="M148.98,314.554c-.888,0-1.57-.28-2.047-.84-.478-.56-.716-1.314-.716-2.262s.238-1.699.716-2.256c.478-.557,1.16-.835,2.047-.835.602,0,1.104.135,1.506.406.402.271.69.65.863,1.139l-1.354.587c-.053-.226-.162-.417-.327-.576-.166-.158-.395-.237-.688-.237-.338,0-.594.111-.767.333-.173.222-.26.521-.26.896v1.105c0,.369.086.666.26.891.173.226.429.338.767.338.331,0,.577-.09.739-.271.162-.181.284-.387.367-.621l1.297.564c-.195.564-.5.978-.914,1.241s-.91.395-1.489.395Z" fill="#fff"/>
    <path d="M154.767,314.554c-.579,0-1.076-.126-1.489-.378s-.731-.611-.953-1.077-.333-1.015-.333-1.647c0-.639.111-1.188.333-1.647.222-.458.54-.814.953-1.066s.91-.378,1.489-.378,1.075.126,1.489.378.731.607.953,1.066c.222.459.333,1.008.333,1.647,0,.632-.111,1.181-.333,1.647s-.54.825-.953,1.077-.91.378-1.489.378ZM154.767,313.234c.331,0,.586-.103.767-.31.18-.207.271-.495.271-.863v-1.207c0-.376-.09-.666-.271-.869-.181-.203-.437-.305-.767-.305-.324,0-.577.102-.762.305-.184.203-.276.493-.276.869v1.207c0,.368.092.656.276.863.185.207.438.31.762.31Z" fill="#fff"/>
    <path d="M162.223,314.419v-.993h-.057c-.098.301-.276.564-.536.79-.26.226-.634.338-1.123.338-.602,0-1.06-.203-1.376-.609-.316-.406-.474-.981-.474-1.726v-3.723h1.67v3.576c0,.361.065.639.197.834.131.196.348.293.648.293.173,0,.34-.032.502-.096s.293-.16.395-.288.152-.286.152-.474v-3.847h1.669v5.922h-1.669Z" fill="#fff"/>
    <path d="M167.119,314.419h-1.669v-5.922h1.669v1.004h.068c.105-.309.289-.576.553-.801.263-.226.627-.338,1.094-.338.602,0,1.06.205,1.376.615.316.41.474.987.474,1.731v3.711h-1.669v-3.576c0-.376-.06-.658-.18-.846-.121-.188-.335-.282-.643-.282-.181,0-.352.032-.513.096-.162.064-.295.16-.4.288-.105.128-.158.29-.158.485v3.835Z" fill="#fff"/>
    <path d="M175.24,314.419h-.993c-.572,0-1.008-.146-1.309-.44s-.451-.722-.451-1.286v-2.899h-.835v-1.297h.417c.226,0,.38-.054.462-.164.083-.109.124-.265.124-.468v-.97h1.5v1.602h1.173v1.297h-1.173v3.328h1.083v1.297Z" fill="#fff"/>
  </g>
  <rect x="57.703" y="235.503" width="138.276" height="38.514" rx="19.257" ry="19.257" fill="#e3f4ff"/>
  <g>
    <path d="M110.982,259.272h-1.715v-7.874h3.722c.489,0,.912.106,1.269.316.357.211.633.506.829.885.195.38.293.818.293,1.314s-.098.933-.293,1.309c-.196.376-.472.671-.829.885s-.78.322-1.269.322h-2.008v2.843ZM110.982,252.887v2.053h1.805c.173,0,.319-.03.44-.09.12-.06.214-.148.282-.265.067-.117.101-.257.101-.423v-.496c0-.173-.034-.316-.101-.429-.068-.113-.162-.199-.282-.259-.121-.06-.267-.09-.44-.09h-1.805Z" fill="#081590"/>
    <path d="M121.709,259.272h-.925c-.203,0-.393-.051-.57-.152s-.318-.252-.423-.451c-.106-.199-.158-.438-.158-.716v-.147l.361.429h-.406c-.09.384-.29.675-.598.874-.308.199-.688.299-1.14.299-.594,0-1.049-.16-1.365-.48-.316-.319-.474-.735-.474-1.246,0-.421.103-.767.31-1.038.207-.271.5-.474.88-.609s.829-.203,1.348-.203h.936v-.372c0-.285-.075-.513-.226-.683-.15-.169-.402-.253-.756-.253-.331,0-.594.071-.789.214-.196.143-.358.305-.485.485l-.993-.88c.241-.353.545-.63.914-.829.368-.199.861-.299,1.478-.299.835,0,1.465.186,1.89.558.425.372.637.908.637,1.607v2.595h.553v1.297ZM119.487,256.779h-.812c-.324,0-.568.056-.733.169-.165.113-.248.279-.248.497v.169c0,.211.068.369.203.474.135.105.327.158.575.158.188,0,.357-.027.508-.079.151-.053.273-.135.367-.248.094-.113.141-.259.141-.44v-.699Z" fill="#081590"/>
    <path d="M125.476,256.113l.869-2.764h1.556l-2.278,6.836c-.098.301-.224.551-.378.75s-.348.348-.581.446c-.233.097-.519.146-.857.146h-1.038v-1.297h1.117l.203-.654-2.076-6.227h1.658l.868,2.764.429,1.714h.068l.44-1.714Z" fill="#081590"/>
    <path d="M131.06,259.407c-.579,0-1.075-.126-1.489-.378-.414-.252-.731-.611-.953-1.077-.222-.466-.333-1.015-.333-1.647,0-.639.111-1.188.333-1.647.222-.459.539-.814.953-1.066s.91-.378,1.489-.378,1.075.126,1.489.378.732.607.953,1.066c.222.459.333,1.008.333,1.647,0,.632-.111,1.181-.333,1.647s-.54.825-.953,1.077c-.414.252-.91.378-1.489.378ZM131.06,258.087c.331,0,.587-.104.767-.31.18-.207.27-.494.27-.863v-1.207c0-.376-.09-.666-.27-.868-.181-.203-.437-.305-.767-.305-.323,0-.577.101-.761.305-.185.203-.277.493-.277.868v1.207c0,.369.092.656.277.863.184.207.438.31.761.31Z" fill="#081590"/>
    <path d="M138.516,259.272v-.993h-.056c-.098.301-.276.564-.536.79-.259.225-.633.338-1.122.338-.602,0-1.06-.203-1.377-.609-.316-.406-.474-.981-.474-1.726v-3.722h1.67v3.576c0,.361.066.639.197.835.131.196.347.293.649.293.173,0,.34-.032.502-.096s.293-.16.395-.288c.101-.128.152-.285.152-.474v-3.846h1.67v5.922h-1.67Z" fill="#081590"/>
    <path d="M144.811,259.272h-.992c-.572,0-1.008-.146-1.309-.44-.301-.293-.451-.722-.451-1.286v-2.899h-.835v-1.297h.418c.225,0,.38-.055.462-.164.083-.109.124-.265.124-.468v-.97h1.5v1.602h1.173v1.297h-1.173v3.328h1.083v1.297Z" fill="#081590"/>
  </g>
  <rect x="217.257" y="235.313" width="64.579" height="20.067" rx="10.033" ry="10.033" fill="#081590"/>
  <line x1="249.804" y1="225.96" x2="249.804" y2="235.313" fill="none" stroke="#081590" stroke-miterlimit="10" stroke-width="1.097"/>
  <rect x="217.771" y="206.633" width="64.065" height="22.472" rx="11.236" ry="11.236" fill="#e3f4ff"/>
  <g>
    <path d="M230.871,220.5h-1.04l-.329-1.092h-1.534l-.329,1.092h-1.013l1.514-4.595h1.237l1.494,4.595ZM229.259,218.559l-.283-.955-.23-.789h-.033l-.224.789-.283.955h1.053Z" fill="#081590"/>
    <path d="M231.457,221.817v-4.772h.974v.579h.033c.048-.193.159-.352.333-.474.173-.123.372-.185.595-.185.294,0,.539.069.734.207.195.138.343.341.444.609.101.267.151.597.151.987s-.05.721-.151.991-.249.475-.444.612c-.195.139-.44.207-.734.207-.224,0-.422-.062-.595-.187-.173-.126-.285-.282-.333-.471h-.033v1.896h-.974ZM233.07,219.79c.184,0,.336-.066.457-.197.121-.132.181-.306.181-.52v-.599c0-.219-.061-.394-.181-.523s-.273-.195-.457-.195c-.123,0-.233.02-.329.06-.097.039-.173.097-.227.174-.055.076-.082.168-.082.273v1.021c0,.105.027.196.082.273.055.077.13.135.227.174.096.039.206.06.329.06Z" fill="#081590"/>
    <path d="M235.458,221.817v-4.772h.974v.579h.033c.048-.193.159-.352.333-.474.173-.123.372-.185.595-.185.294,0,.539.069.734.207.195.138.343.341.444.609.101.267.151.597.151.987s-.05.721-.151.991-.249.475-.444.612c-.195.139-.44.207-.734.207-.224,0-.422-.062-.595-.187-.173-.126-.285-.282-.333-.471h-.033v1.896h-.974ZM237.071,219.79c.184,0,.336-.066.457-.197.121-.132.181-.306.181-.52v-.599c0-.219-.061-.394-.181-.523s-.273-.195-.457-.195c-.123,0-.233.02-.329.06-.097.039-.173.097-.227.174-.055.076-.082.168-.082.273v1.021c0,.105.027.196.082.273.055.077.13.135.227.174.096.039.206.06.329.06Z" fill="#081590"/>
    <path d="M240.868,220.5h-.441c-.333,0-.578-.081-.734-.243-.156-.162-.234-.397-.234-.704v-3.923h.974v4.114h.434v.757Z" fill="#081590"/>
    <path d="M241.942,216.736c-.198,0-.341-.046-.431-.139-.09-.092-.135-.206-.135-.342v-.144c0-.14.045-.256.135-.346s.234-.135.431-.135.341.045.431.135.135.206.135.346v.144c0,.137-.045.251-.135.342-.09.093-.234.139-.431.139ZM241.454,220.5v-3.455h.974v3.455h-.974Z" fill="#081590"/>
    <path d="M244.733,220.579c-.518,0-.916-.163-1.195-.49s-.418-.767-.418-1.32.139-.991.418-1.316c.279-.324.677-.487,1.195-.487.351,0,.643.079.878.237s.402.379.503.665l-.789.342c-.029-.131-.094-.243-.191-.336-.095-.092-.229-.138-.4-.138-.198,0-.347.064-.448.194s-.152.304-.152.523v.645c0,.215.051.388.152.52.101.132.25.197.448.197.193,0,.336-.052.43-.158.095-.105.167-.226.215-.362l.756.329c-.114.33-.292.571-.532.724-.242.153-.531.23-.868.23Z" fill="#081590"/>
    <path d="M249.833,220.5h-.54c-.118,0-.229-.029-.332-.089-.104-.059-.185-.147-.247-.263-.062-.116-.093-.255-.093-.418v-.085l.211.25h-.237c-.053.224-.169.394-.349.51s-.402.174-.666.174c-.346,0-.611-.093-.796-.28-.185-.186-.276-.429-.276-.727,0-.246.06-.447.181-.606.12-.158.292-.276.513-.355.222-.079.484-.118.787-.118h.546v-.217c0-.167-.044-.3-.131-.398-.088-.099-.235-.148-.442-.148-.193,0-.346.041-.461.125-.114.084-.208.177-.283.283l-.579-.513c.14-.207.319-.367.533-.484s.502-.174.862-.174c.487,0,.855.108,1.103.326.248.217.372.53.372.937v1.514h.323v.757ZM248.536,219.045h-.474c-.189,0-.331.033-.428.099s-.145.162-.145.289v.099c0,.123.039.215.118.276s.191.093.336.093c.109,0,.208-.016.296-.047.088-.03.16-.079.214-.144.055-.066.083-.151.083-.257v-.409Z" fill="#081590"/>
    <path d="M252.235,220.5h-.579c-.333,0-.588-.085-.764-.257-.175-.171-.263-.42-.263-.75v-1.692h-.487v-.756h.243c.132,0,.221-.032.27-.095s.073-.155.073-.274v-.565h.876v.935h.684v.756h-.684v1.942h.632v.757Z" fill="#081590"/>
    <path d="M253.453,216.736c-.197,0-.341-.046-.431-.139-.09-.092-.135-.206-.135-.342v-.144c0-.14.045-.256.135-.346s.233-.135.431-.135.341.045.431.135.135.206.135.346v.144c0,.137-.045.251-.135.342-.09.093-.234.139-.431.139ZM252.966,220.5v-3.455h.974v3.455h-.974Z" fill="#081590"/>
    <path d="M256.25,220.579c-.338,0-.628-.073-.869-.22-.241-.147-.426-.356-.555-.629-.129-.272-.195-.592-.195-.961,0-.373.065-.693.195-.96.129-.268.315-.476.555-.622.241-.147.532-.22.869-.22s.627.073.868.22.427.354.556.622c.129.267.195.588.195.96,0,.369-.065.689-.195.961-.129.273-.315.482-.556.629s-.531.22-.868.22ZM256.25,219.809c.193,0,.342-.06.447-.181.106-.12.159-.288.159-.503v-.705c0-.219-.053-.388-.159-.507-.105-.118-.254-.177-.447-.177-.189,0-.337.059-.444.177s-.162.287-.162.507v.705c0,.215.054.383.162.503.107.121.255.181.444.181Z" fill="#081590"/>
    <path d="M259.534,220.5h-.974v-3.455h.974v.586h.039c.062-.18.169-.336.322-.467.153-.132.366-.197.639-.197.351,0,.619.119.802.359.185.239.277.576.277,1.01v2.166h-.975v-2.087c0-.219-.035-.384-.105-.494-.071-.109-.196-.164-.375-.164-.106,0-.206.019-.299.056-.095.038-.173.094-.234.168s-.092.169-.092.283v2.238Z" fill="#081590"/>
    <path d="M264.207,220.5v-2.699h-.487v-.756h.487v-.409c0-.333.089-.585.267-.754.177-.169.432-.253.767-.253h.632v.757h-.691v.658h.691v.756h-.691v2.699h-.974Z" fill="#081590"/>
    <path d="M267.827,220.579c-.352,0-.651-.073-.899-.22s-.436-.356-.565-.629c-.129-.272-.195-.592-.195-.961,0-.364.062-.681.187-.951.126-.27.308-.479.55-.628.241-.15.535-.224.882-.224.382,0,.689.082.924.247.235.164.408.38.517.648.11.268.164.557.164.868v.29h-2.218v.052c0,.229.062.409.187.543.126.134.318.2.576.2.206,0,.372-.041.497-.125s.242-.18.353-.289l.487.605c-.153.175-.354.315-.602.419-.248.103-.53.154-.845.154ZM267.807,217.683c-.131,0-.244.03-.339.089-.095.06-.167.141-.217.247-.05.106-.076.23-.076.375v.052h1.211v-.06c0-.14-.02-.263-.062-.368-.041-.106-.105-.187-.191-.247-.085-.059-.194-.089-.326-.089Z" fill="#081590"/>
    <path d="M271.526,220.579c-.352,0-.651-.073-.899-.22s-.436-.356-.565-.629c-.129-.272-.195-.592-.195-.961,0-.364.062-.681.187-.951.126-.27.308-.479.55-.628.241-.15.535-.224.882-.224.382,0,.689.082.924.247.235.164.408.38.517.648.11.268.164.557.164.868v.29h-2.218v.052c0,.229.062.409.187.543.126.134.318.2.576.2.206,0,.372-.041.497-.125s.242-.18.353-.289l.487.605c-.153.175-.354.315-.602.419-.248.103-.53.154-.845.154ZM271.506,217.683c-.131,0-.244.03-.339.089-.095.06-.167.141-.217.247-.05.106-.076.23-.076.375v.052h1.211v-.06c0-.14-.02-.263-.062-.368-.041-.106-.105-.187-.191-.247-.085-.059-.194-.089-.326-.089Z" fill="#081590"/>
  </g>
  <path d="M255.005,245.461h-.745v.884h.745c.154,0,.27-.045.348-.134.262-.289.067-.776-.348-.75Z" fill="none"/>
  <path d="M244.527,244.855c-.131-.091-.359-.095-.49,0-.161.113-.21.302-.209.509h.905c0-.207-.042-.397-.206-.509Z" fill="none"/>
  <path d="M255.287,244.665c.145-.142.148-.429,0-.568-.073-.073-.183-.11-.329-.11h-.696v.793h.696c.146,0,.256-.038.329-.115Z" fill="none"/>
  <path d="M258.521,245.003c-.128-.195-.562-.198-.696,0-.121.145-.133.411-.131.646-.002.234.011.507.131.648.134.194.568.192.696,0,.073-.096.115-.241.126-.434.011-.26.024-.672-.126-.86Z" fill="none"/>
  <path d="M261.637,245.003c-.128-.195-.562-.198-.696,0-.121.145-.133.411-.131.646-.007.379.034.799.477.793.36-.003.451-.233.477-.579.011-.256.024-.675-.126-.86Z" fill="none"/>
  <path d="M237.274,247.782c.584-.877.261-2.078-.669-2.541-.579-.248-.953.593-.385.868h0c.903.561.134,1.905-.805,1.399-.172-.037-.979-1.25-1.33-1.962.514-.822,1.317-2.374,1.223-2.744-.061-2.316-3.439-2.316-3.499,0-.072.163.345,1.306.892,2.174-1.024-.041-2.215.166-2.321.311-1.337.74-1.062,2.852.422,3.218,1.323.269,1.822-.448,2.732-2.002.877,1.438,1.18,1.999,2.279,2.062.575.004,1.145-.299,1.46-.783ZM231.658,247.507c-.939.506-1.707-.838-.805-1.399.19-.11.937-.197,1.931-.187-.488.869-.937,1.476-1.126,1.586ZM233.559,244.574c-.505-.859-.805-1.553-.805-1.772,0-.445.361-.808.805-.808s.805.362.805.808c0,.22-.299.914-.805,1.772Z" fill="#fff"/>
  <path d="M264.724,245.504l.964-1.039c.018-.011.029-.025.035-.043.031-.077-.026-.168-.11-.166,0,0-.718,0-.718,0-.046,0-.082.009-.107.027-.023-.003-.78.853-.814.884v-1.795c.002-.075-.062-.135-.134-.134,0,0-.621,0-.621,0-.039,0-.071.012-.096.038-.025.025-.038.057-.038.096v3.536c0,.072.059.136.134.134,0,0,.621,0,.621,0,.036,0,.067-.013.094-.04.027-.027.04-.058.04-.094v-.975l.847,1.018c.021.021.045.042.07.062.025.02.064.029.118.029h.734c.036,0,.065-.012.088-.035.046-.049.05-.116-.008-.169,0,0-1.098-1.334-1.098-1.334Z" fill="#fff"/>
  <path d="M259.397,244.759c-.468-.753-1.979-.754-2.448,0-.205.296-.212.76-.193,1.13.028.476.226.859.656,1.061.388.194,1.136.192,1.522,0,.516-.231.683-.759.662-1.305.008-.318-.039-.648-.198-.887ZM258.652,245.67c.001.376-.042.78-.482.771-.442.006-.483-.414-.477-.793-.007-.376.037-.798.477-.793.457-.009.486.434.482.815Z" fill="#fff"/>
  <path d="M262.513,244.759c-.468-.753-1.979-.754-2.448,0-.205.296-.212.76-.193,1.13.028.476.226.859.656,1.061.388.194,1.136.192,1.522,0,.516-.231.683-.759.662-1.305.008-.318-.039-.648-.198-.887ZM261.763,245.863c-.011.193-.053.338-.126.434-.128.192-.562.194-.696,0-.12-.142-.133-.414-.131-.648-.002-.234.011-.501.131-.646.134-.198.568-.195.696,0,.15.185.137.604.126.86Z" fill="#fff"/>
  <path d="M255.954,245.075c.676-.339.551-1.388-.134-1.655-.428-.227-1.889-.095-2.39-.129-.077-.001-.135.057-.134.134,0,0,0,3.482,0,3.482,0,.036.012.067.038.094.025.027.057.04.096.04.512-.039,1.983.105,2.424-.137.759-.311.854-1.467.099-1.83ZM254.261,243.987h.696c.265-.005.437.139.439.391-.002.25-.173.408-.439.402,0,0-.696,0-.696,0v-.793ZM255.354,246.211c-.079.089-.195.134-.348.134h-.745v-.884h.745c.15,0,.265.043.346.129.158.163.162.45.003.621Z" fill="#fff"/>
  <path d="M249.353,243.345c.001-.055-.045-.109-.102-.107,0,0-.627,0-.627,0-.115-.004-.176.085-.193.182,0,0-.161,1.045-.161,1.045-.004.039.004.07.024.091.02.021.046.032.078.032h.37c.061,0,.105-.016.134-.048.029-.032.05-.066.064-.102l.402-1.034c.007-.018.011-.038.011-.059Z" fill="#fff"/>
  <path d="M247.941,246.307h-.413c-.111,0-.189-.036-.236-.107-.046-.071-.07-.168-.07-.289v-.954h.67c.039,0,.072-.012.099-.038.027-.025.04-.057.04-.096v-.434c0-.039-.013-.071-.04-.096-.027-.025-.06-.038-.099-.038h-.67v-.884c0-.039-.012-.071-.038-.096-.025-.025-.057-.038-.096-.038h-.621c-.036,0-.067.012-.094.038-.027.025-.04.057-.04.096v.884h-.418c-.039,0-.072.013-.099.038-.027.025-.04.057-.04.096v.434c0,.039.013.071.04.096.027.025.06.038.099.038h.418c.026.388-.084,1.313.134,1.631.275.511.961.456,1.473.453.075.002.135-.062.134-.134,0,0,0-.466,0-.466.001-.077-.057-.135-.134-.134Z" fill="#fff"/>
  <path d="M245.057,244.389c-.375-.24-1.096-.249-1.5-.029-.447.232-.654.669-.672,1.187-.025.465.098.961.391,1.205.462.446,1.472.454,1.99.056.166-.128.318-.296.34-.474.009-.072-.049-.119-.118-.118,0,0-.664,0-.664,0-.043,0-.074.004-.094.013-.048.024-.096.102-.153.15-.08.073-.176.118-.3.115-.321.009-.458-.319-.45-.6h1.714c.077.001.135-.057.134-.134.024-.547-.141-1.088-.619-1.372ZM244.733,245.364h-.905c-.012-.292.136-.584.45-.579.325-.005.466.278.455.579Z" fill="#fff"/>
  <path d="M251.527,245.549c-.207-.151-.797-.212-1.031-.297-.095-.032-.157-.068-.188-.107-.072-.09-.057-.225.035-.295.095-.084.329-.08.439-.021.057.029.107.061.15.096.061.046.137.107.209.113,0,0,.557,0,.557,0,.032,0,.061-.013.086-.04.126-.148-.141-.443-.289-.538-.637-.459-2.07-.345-2.132.605-.014.529.459.749.922.852.278.06.479.081.638.217.032.038.048.085.048.142-.002.176-.19.235-.354.236-.241.006-.341-.132-.52-.236-.02-.019-.034-.026-.059-.027,0,0-.611,0-.611,0-.032,0-.063.013-.091.038-.082.077-.017.205.043.308.261.374.731.501,1.216.501.616.007,1.323-.201,1.339-.873-.004-.288-.139-.516-.407-.672Z" fill="#fff"/>
  <path d="M242.64,246.232h-1.623v-2.807c0-.039-.013-.071-.038-.096-.025-.025-.057-.038-.096-.038h-.707c-.039,0-.071.012-.096.038-.025.025-.038.057-.038.096v3.482c0,.036.012.067.038.094.025.027.057.04.096.04h2.464c.075.003.135-.062.134-.134,0,0,0-.536,0-.536.001-.076-.056-.141-.134-.139Z" fill="#fff"/>
  <circle cx="126.721" cy="107.76" r="42.759" fill="#081590"/>
  <g>
    <path d="M111.762,119.589c-.465,0-.869-.099-1.213-.297-.344-.198-.61-.493-.798-.883-.188-.391-.282-.879-.282-1.462s.094-1.077.282-1.481c.188-.403.454-.71.798-.92s.748-.316,1.213-.316c.475,0,.869.099,1.184.297.314.197.565.505.753.92l-.972.505c-.064-.218-.172-.392-.323-.523-.151-.131-.365-.196-.642-.196-.331,0-.597.107-.798.322-.2.216-.301.529-.301.939v.831c0,.406.101.718.301.935.201.218.466.327.798.327.277,0,.498-.075.664-.227.166-.151.288-.332.368-.545l.92.534c-.193.391-.448.695-.764.912-.317.218-.712.327-1.187.327Z" fill="#fff"/>
    <path d="M116.741,119.5v-.653h-.037c-.064.197-.182.371-.353.519-.171.149-.417.223-.739.223-.396,0-.698-.134-.905-.401-.208-.267-.312-.645-.312-1.135v-2.449h1.098v2.353c0,.237.044.42.13.549.087.129.229.193.427.193.114,0,.224-.021.33-.063.106-.041.193-.105.26-.189.067-.084.101-.188.101-.311v-2.531h1.098v3.896h-1.098Z" fill="#fff"/>
    <path d="M120.184,119.589c-.376,0-.693-.061-.95-.182-.257-.121-.487-.293-.69-.516l.646-.653c.139.153.292.274.46.364.168.089.359.133.571.133.218,0,.369-.033.453-.1.084-.067.126-.157.126-.271,0-.099-.031-.173-.093-.222s-.162-.084-.301-.105l-.423-.051c-.292-.039-.536-.109-.731-.207-.196-.099-.341-.231-.438-.397-.096-.165-.145-.364-.145-.598,0-.375.136-.681.408-.916.272-.235.641-.353,1.106-.353.272,0,.502.024.69.071s.353.116.493.207.276.202.404.33l-.631.645c-.123-.124-.263-.221-.419-.293-.156-.072-.316-.107-.479-.107-.183,0-.315.029-.397.089-.082.059-.123.139-.123.237,0,.104.028.185.085.241s.164.098.323.122l.438.06c.425.054.746.179.961.375s.323.462.323.798c0,.248-.069.47-.208.668-.138.197-.333.353-.582.464s-.543.167-.879.167Z" fill="#fff"/>
    <path d="M124.562,119.5h-.653c-.376,0-.663-.096-.861-.289s-.297-.476-.297-.846v-1.907h-.549v-.854h.274c.148,0,.25-.036.304-.107.054-.072.082-.174.082-.308v-.638h.987v1.054h.772v.854h-.772v2.188h.712v.854Z" fill="#fff"/>
    <path d="M126.937,119.589c-.381,0-.707-.083-.979-.249-.272-.165-.481-.402-.627-.709s-.219-.667-.219-1.083c0-.42.073-.782.219-1.083.146-.302.355-.536.627-.701.272-.166.599-.249.979-.249s.708.083.979.249c.272.165.481.399.627.701.146.301.219.663.219,1.083,0,.416-.073.777-.219,1.083-.146.307-.355.543-.627.709-.272.166-.599.249-.979.249ZM126.937,118.721c.218,0,.386-.068.505-.204.118-.136.178-.325.178-.568v-.793c0-.248-.06-.438-.178-.572-.119-.133-.287-.2-.505-.2-.213,0-.38.067-.501.2-.121.134-.182.324-.182.572v.793c0,.243.061.432.182.568s.288.204.501.204Z" fill="#fff"/>
    <path d="M130.64,119.5h-1.098v-3.896h1.098v.66h.045c.069-.207.19-.385.36-.531.17-.145.399-.218.686-.218.267,0,.495.067.683.2.188.134.324.33.409.587h.022c.069-.218.21-.403.423-.556.213-.153.467-.23.764-.23.376,0,.664.135.865.405.2.269.3.649.3,1.138v2.442h-1.098v-2.353c0-.252-.044-.439-.13-.56-.087-.121-.222-.182-.405-.182-.109,0-.213.021-.312.063-.099.042-.179.105-.241.189s-.093.19-.093.319v2.524h-1.098v-2.353c0-.252-.045-.439-.134-.56s-.223-.182-.401-.182c-.104,0-.205.021-.304.063s-.18.105-.245.189c-.065.084-.097.19-.097.319v2.524Z" fill="#fff"/>
    <path d="M137.801,119.589c-.396,0-.733-.083-1.013-.249-.28-.165-.492-.402-.638-.709s-.219-.667-.219-1.083c0-.41.071-.768.212-1.072.141-.305.347-.541.62-.709.272-.168.604-.252.994-.252.431,0,.778.093,1.043.278.264.185.459.43.582.731.123.302.185.629.185.979v.327h-2.501v.06c0,.257.07.461.211.612.141.151.358.226.649.226.233,0,.42-.047.56-.14.141-.095.273-.203.397-.327l.549.683c-.173.197-.399.354-.679.471s-.598.174-.954.174ZM137.779,116.324c-.149,0-.276.033-.382.1s-.188.16-.245.278c-.057.119-.085.26-.085.423v.06h1.366v-.067c0-.158-.024-.297-.071-.416-.047-.118-.119-.211-.215-.278s-.219-.1-.367-.1Z" fill="#fff"/>
    <path d="M141.445,119.5h-1.098v-3.896h1.098v.846h.037c.03-.144.084-.28.163-.409.079-.129.187-.234.323-.316.136-.082.306-.122.509-.122h.193v1.024h-.274c-.213,0-.39.018-.531.055-.141.038-.246.098-.315.182-.069.084-.104.203-.104.356v2.278Z" fill="#fff"/>
    <path d="M112.003,127.169v-5.38h1.098v.653h.037c.055-.218.179-.396.375-.534.195-.138.419-.207.672-.207.331,0,.607.078.828.234.22.155.387.385.501.686.114.302.171.673.171,1.114s-.057.812-.171,1.117c-.114.304-.281.534-.501.689-.22.156-.496.234-.828.234-.252,0-.476-.071-.672-.211-.196-.141-.32-.319-.375-.531h-.037v2.137h-1.098ZM113.821,124.883c.207,0,.38-.074.515-.223.136-.148.204-.343.204-.586v-.676c0-.247-.068-.443-.204-.589-.136-.146-.308-.219-.515-.219-.139,0-.263.022-.371.067-.109.044-.194.11-.256.196-.062.086-.093.189-.093.308v1.15c0,.119.031.222.093.308.062.086.147.152.256.196.109.045.233.067.371.067Z" fill="#fff"/>
    <path d="M120.002,125.684h-.608c-.134,0-.259-.033-.375-.1s-.209-.166-.278-.297c-.069-.131-.104-.288-.104-.472v-.096l.237.282h-.267c-.059.252-.19.444-.393.576s-.453.196-.75.196c-.391,0-.69-.105-.898-.316-.208-.21-.312-.483-.312-.82,0-.277.068-.505.204-.683.136-.178.329-.311.579-.4.25-.089.546-.134.887-.134h.616v-.244c0-.188-.05-.338-.148-.449-.099-.112-.265-.167-.497-.167-.218,0-.391.047-.52.14-.129.095-.235.201-.319.319l-.653-.579c.158-.232.358-.414.601-.545.242-.131.566-.196.972-.196.549,0,.963.122,1.243.367s.419.598.419,1.058v1.707h.364v.854ZM118.54,124.044h-.534c-.213,0-.374.038-.482.112s-.163.183-.163.326v.112c0,.139.045.242.134.311.089.07.215.104.378.104.124,0,.235-.017.334-.051.099-.035.179-.089.241-.163s.093-.171.093-.289v-.461Z" fill="#fff"/>
    <path d="M122.481,123.607l.571-1.819h1.024l-1.499,4.497c-.065.197-.147.363-.249.493-.101.131-.229.229-.382.294s-.341.096-.564.096h-.683v-.854h.735l.134-.431-1.366-4.096h1.091l.571,1.819.282,1.127h.045l.289-1.127Z" fill="#fff"/>
    <path d="M125.731,125.684h-1.098v-3.896h1.098v.66h.045c.069-.207.19-.385.36-.531.17-.145.399-.218.686-.218.267,0,.495.067.683.2.188.134.324.33.409.587h.022c.069-.218.21-.403.423-.556.213-.153.467-.23.764-.23.376,0,.664.135.865.405.2.269.3.649.3,1.138v2.442h-1.098v-2.353c0-.252-.044-.439-.13-.56-.087-.121-.222-.182-.405-.182-.109,0-.213.021-.312.063-.099.042-.179.105-.241.189s-.093.19-.093.319v2.524h-1.098v-2.353c0-.252-.045-.439-.134-.56s-.223-.182-.401-.182c-.104,0-.205.021-.304.063s-.18.105-.245.189c-.065.084-.097.19-.097.319v2.524Z" fill="#fff"/>
    <path d="M132.892,125.773c-.396,0-.733-.083-1.013-.249-.28-.165-.492-.402-.638-.709s-.219-.667-.219-1.083c0-.41.071-.768.212-1.072.141-.305.347-.541.62-.709.272-.168.604-.252.994-.252.431,0,.778.093,1.043.278.264.185.459.43.582.731.123.302.185.629.185.979v.327h-2.501v.06c0,.257.07.461.211.612.141.151.358.226.649.226.233,0,.42-.047.56-.14.141-.095.273-.203.397-.327l.549.683c-.173.197-.399.354-.679.471s-.598.174-.954.174ZM132.87,122.508c-.149,0-.276.033-.382.1s-.188.16-.245.278c-.057.119-.085.26-.085.423v.06h1.366v-.067c0-.158-.024-.297-.071-.416-.047-.118-.119-.211-.215-.278s-.219-.1-.367-.1Z" fill="#fff"/>
    <path d="M136.536,125.684h-1.098v-3.896h1.098v.66h.045c.069-.202.19-.378.364-.527.173-.148.413-.222.72-.222.396,0,.698.135.905.405.208.269.312.649.312,1.138v2.442h-1.098v-2.353c0-.247-.04-.432-.119-.556-.079-.124-.22-.185-.423-.185-.118,0-.231.021-.337.063-.106.042-.194.105-.263.189s-.104.19-.104.319v2.524Z" fill="#fff"/>
    <path d="M141.879,125.684h-.653c-.376,0-.663-.096-.861-.289s-.297-.476-.297-.846v-1.907h-.549v-.854h.274c.148,0,.25-.036.304-.107.054-.072.082-.174.082-.308v-.638h.987v1.054h.772v.854h-.772v2.188h.712v.854Z" fill="#fff"/>
  </g>
  <g>
    <path d="M130.096,94.835c0,1.776-1.563,3.7-3.49,3.7s-3.49-1.924-3.49-3.7,1.563-3.216,3.49-3.216,3.49,1.44,3.49,3.216Z" fill="#fff" fill-rule="evenodd"/>
    <g clip-path="url(#clippath)">
      <rect x="122.401" y="90.905" width="8.41" height="8.345" fill="#fff"/>
    </g>
  </g>
  <g>
    <path d="M130.712,106.623h.255c.964,0,1.746-.782,1.746-1.747-.001-3.134-2.54-5.675-5.672-5.676h-.87c-3.133,0-5.673,2.541-5.674,5.676,0,.964.782,1.746,1.746,1.746h.287s8.18,0,8.18,0Z" fill="#fff" fill-rule="evenodd"/>
    <g clip-path="url(#clippath-1)">
      <rect x="119.783" y="98.486" width="13.645" height="8.852" fill="#fff"/>
    </g>
  </g>
  <rect x="290.032" y="206.633" width="64.065" height="22.472" rx="11.236" ry="11.236" fill="#e3f4ff"/>
  <g>
    <path d="M313.16,219.684h-1.001v-4.595h2.172c.285,0,.532.062.741.185s.369.296.484.517c.114.221.171.477.171.767s-.057.544-.171.764c-.115.219-.275.392-.484.517s-.455.187-.741.187h-1.171v1.659ZM313.16,215.959v1.198h1.053c.101,0,.186-.017.257-.053.07-.035.125-.086.164-.154s.059-.151.059-.247v-.289c0-.101-.019-.185-.059-.251s-.095-.116-.164-.151c-.071-.035-.156-.052-.257-.052h-1.053Z" fill="#081590"/>
    <path d="M317.898,219.763c-.399,0-.74-.07-1.023-.21-.284-.14-.523-.319-.722-.533l.658-.665c.154.175.329.307.523.395.196.088.405.131.629.131.246,0,.428-.05.546-.151s.178-.234.178-.401c0-.084-.015-.159-.043-.227s-.081-.126-.158-.172-.187-.078-.332-.095l-.454-.059c-.32-.044-.585-.124-.793-.241s-.363-.27-.464-.461-.151-.413-.151-.668c0-.276.069-.519.207-.727.138-.208.336-.372.592-.49.257-.118.565-.178.925-.178.346,0,.651.056.914.168s.489.271.678.477l-.666.671c-.109-.127-.242-.231-.397-.312-.156-.082-.353-.122-.589-.122-.224,0-.39.039-.5.118-.109.079-.164.189-.164.33,0,.105.018.191.056.256.037.066.096.117.177.151.082.036.185.064.313.085l.454.073c.316.049.576.129.783.244.206.114.36.263.461.447s.151.409.151.671c0,.295-.07.554-.207.778-.139.223-.341.399-.609.526-.268.128-.593.191-.975.191Z" fill="#081590"/>
    <path d="M321.519,219.684h-1.001v-4.595h2.172c.285,0,.532.062.741.185s.369.296.484.517c.114.221.171.477.171.767s-.057.544-.171.764c-.115.219-.275.392-.484.517s-.455.187-.741.187h-1.171v1.659ZM321.519,215.959v1.198h1.053c.101,0,.186-.017.257-.053.07-.035.125-.086.164-.154s.059-.151.059-.247v-.289c0-.101-.019-.185-.059-.251s-.095-.116-.164-.151c-.071-.035-.156-.052-.257-.052h-1.053Z" fill="#081590"/>
    <path d="M326.507,219.684v-2.699h-.487v-.756h.487v-.409c0-.333.089-.585.267-.754.177-.169.432-.253.767-.253h.632v.757h-.691v.658h.691v.756h-.691v2.699h-.974Z" fill="#081590"/>
    <path d="M330.128,219.763c-.352,0-.651-.073-.899-.22s-.436-.356-.565-.629c-.129-.272-.195-.592-.195-.961,0-.364.062-.681.187-.951.126-.27.308-.479.55-.628.241-.15.535-.224.882-.224.382,0,.689.082.924.247.235.164.408.38.517.648.11.268.164.557.164.868v.29h-2.218v.052c0,.229.062.409.187.543.126.134.318.2.576.2.206,0,.372-.041.497-.125s.242-.18.353-.289l.487.605c-.153.175-.354.315-.602.419-.248.103-.53.154-.845.154ZM330.107,216.867c-.131,0-.244.03-.339.089-.095.06-.167.141-.217.247-.05.106-.076.23-.076.375v.052h1.211v-.06c0-.14-.02-.263-.062-.368-.041-.106-.105-.187-.191-.247-.085-.059-.194-.089-.326-.089Z" fill="#081590"/>
    <path d="M333.826,219.763c-.352,0-.651-.073-.899-.22s-.436-.356-.565-.629c-.129-.272-.195-.592-.195-.961,0-.364.062-.681.187-.951.126-.27.308-.479.55-.628.241-.15.535-.224.882-.224.382,0,.689.082.924.247.235.164.408.38.517.648.11.268.164.557.164.868v.29h-2.218v.052c0,.229.062.409.187.543.126.134.318.2.576.2.206,0,.372-.041.497-.125s.242-.18.353-.289l.487.605c-.153.175-.354.315-.602.419-.248.103-.53.154-.845.154ZM333.806,216.867c-.131,0-.244.03-.339.089-.095.06-.167.141-.217.247-.05.106-.076.23-.076.375v.052h1.211v-.06c0-.14-.02-.263-.062-.368-.041-.106-.105-.187-.191-.247-.085-.059-.194-.089-.326-.089Z" fill="#081590"/>
    <path d="M337.255,219.763c-.333,0-.614-.054-.843-.162-.228-.107-.432-.26-.612-.457l.573-.579c.123.136.259.243.409.322.149.079.318.119.507.119.193,0,.327-.03.401-.089.074-.06.112-.14.112-.241,0-.088-.028-.153-.083-.197-.054-.044-.143-.074-.266-.092l-.375-.047c-.259-.035-.475-.096-.648-.184-.173-.088-.303-.206-.388-.353s-.129-.323-.129-.53c0-.333.121-.605.363-.813.241-.208.568-.312.98-.312.241,0,.445.021.612.062.166.041.312.103.438.185.125.081.244.178.358.293l-.559.573c-.11-.11-.234-.196-.372-.261-.139-.063-.28-.095-.425-.095-.162,0-.279.027-.352.079-.073.053-.109.123-.109.211,0,.092.026.163.076.214s.146.086.286.108l.388.052c.377.049.661.16.852.333.191.173.286.409.286.707,0,.219-.062.417-.185.593-.122.175-.295.312-.516.411-.222.098-.482.148-.78.148Z" fill="#081590"/>
  </g>
  <line x1="126.841" y1="188.973" x2="126.841" y2="207.222" fill="none" opacity=".73" stroke="#fff" stroke-miterlimit="10" stroke-width=".397"/>
</svg>