<svg xmlns="http://www.w3.org/2000/svg" viewBox="0 0 400 400">
  <path fill="#fff" d="M0 0h399.6v399.6H0z"/>
  <path fill="#12c19b" fill-rule="evenodd" d="M188.1 319c1-1.4 2.4-1.3 3-.2l.4.7.2.7c.5 1.9 1.2 3.7 2 5.5.5 1.2.8 2.4.9 3.6l-.2 1.8c-.1.7-1 1.2-1.7 1.1a59 59 0 0 1-3.8-1.5c-.8-.3-1.6-.5-2.5-.6-1 0-2-.3-2.9-.6-1-.3-1.4-1.4-.9-2.3a18 18 0 0 1 2-2.8c1.2-1.5 2.4-3 3.2-4.9l.3-.6M159 340.3l-2.4-1.3c-.5-.3-.8-1.2-.6-1.7l.7-1.7c1.2-2.3 2.7-4.4 5-5.7.6-.4 1.6-.2 2 .4.2.2.4.4.4.6.8 3 2 6 2.6 9.2l.2 1.1c0 1-1 2-1.9 2-1.6-.2-3.2-.4-4.4-1.6-.4-.5-1-.8-1.5-1.3M208 308l1.3-1.8 1.2-.9c1.5-1 2.8-.7 3.6.9.6 1.2 1.3 2.4 2.2 3.4l.5 1c.5.9 0 2.3-1 2.8-.6.3-1.3.5-2 .5-1.7.1-3.2-.2-4.8-.5a4 4 0 0 1-2-1.4c-.7-.7-.8-2-.2-2.7l1-1.4h.2Zm-4.5 22.4 3.8-3.4c.4-.4 1.3-.3 1.6.2.2.3.5.5.6.9.6 2.7 1.2 5.4 2 8.1.3.7-.5 1.5-1.2 1.5h-.4l-5-1.3-.3-.2c-2.8-1.3-2.4-3.7-1-5.8m-14.8 32.8-1.2-.7-.8-.8c-.4-.5-.4-1.7.2-2 2.2-1 3.9-3 6.2-4l1-.3c.5-.2 1.3 0 1.6.6.3.6.7 1.2.5 1.7-.6 2.5-1.1 5-2.4 7.4-.3.6-1.2 1-1.9.6l-2-1-1.2-1.5m-8.1-17.9-3.2-2.5c-.8-.7-.7-2.3.2-2.9l2.3-1.1c4-1.5 4-1.4 5 2.7l1.1 4.6v1.1c0 .5-1 1-1.5.8l-1-.5-2.8-2.3v.1m43.1-4.4c-.7-.6-.7-1.7-.3-2.2l.5-.5c1.1-.8 2-1.8 2.8-2.8.4-.5 1-.8 1.5-1 .5-.3 1.4-.1 1.6.4a39 39 0 0 0 2.8 4.3c.2.3.2.7.3 1 .1.7-.4 1.6-1 1.8-2.7.8-5.3.7-7.8-.7l-.4-.3m-72.4 8.3.8-.5c1.9-.4 3.8-.7 5.8-.6 1 0 1.7.8 1.9 1.9v1c-.4 1.7-1 3.3-2 4.7l-.8.7c-.6.4-1.7.1-2-.4l-.4-.6a8.4 8.4 0 0 0-2.8-3.8c-.3-.2-.4-.6-.7-.9-.2-.2 0-1 .2-1.5m60.4 6.4-1.5-1.1c-.5-.5-.6-1.4-.2-2l2.7-3a3 3 0 0 1 1.9-1c.3 0 .8.2.9.4.7 2.2 1.5 4.4 1.7 6.8l-.1 1c0 .8-1 1.4-1.7 1.1l-1.3-.5-2.5-1.6m-16.4-12.2 1-1.6c.5-.5 1-.6 1.7-.6.4 0 1.1.3 1.2.6.6 2 1.5 3.7 1.5 5.7 0 .5 0 1-.2 1.5-.1.2-.5.4-.8.5l-.8-.1c-1.3-.6-2.7-1-4.2-1.1-1.3-.1-1.8-1.4-1-2.5l.7-1.2 1-1.2h-.1M177.7 360c-.4.5-.8 1-1.3 1.3-.2.3-.6.4-1 .5-.5.1-1.3-.4-1.4-.9 0-1.8-.3-3.6-.8-5.4-.2-.8.7-1.6 1.6-1.5 1 .1 1.9.3 2.8.6 1.8.4 2.4 1.7 1.5 3.3l-1.4 2"/>
  <rect width="64.6" height="20.1" x="290" y="235.3" fill="#081590" rx="10" ry="10"/>
  <path fill="none" stroke="#081590" stroke-miterlimit="10" stroke-width="1.1" d="M238.1 198.1h74s10.2-.2 10.2 8.3v6.6"/>
  <path fill="none" stroke="#081590" stroke-miterlimit="10" stroke-width="1.1" d="M165.6 198.1h75s9.2-.2 9.2 8.3v6.6"/>
  <path fill="#12c19b" fill-rule="evenodd" d="M93 91.5c.3 1.6-.8 2.5-2 2.2l-.7-.3a34.6 34.6 0 0 0-6-2.8c-1.2-.4-2.3-1-3.2-2-.4-.3-.8-.8-1.1-1.3-.4-.6-.2-1.7.4-2 .3-.2.6-.5 1-.6l2.7-1c.8-.3 1.5-.8 2.2-1.4.7-.6 1.6-1.1 2.4-1.6 1-.5 2.1 0 2.4 1l.5 3.3c.2 2 .5 4 1.3 5.8l.1.7m5.4-35.7 2.7-.8c.5-.1 1.4.3 1.6.7l.7 1.7c.8 2.5 1.3 5 .5 7.7-.1.6-1 1.2-1.7 1h-.7c-2.8-1.7-5.7-3-8.4-4.8l-.8-.7c-.8-.6-.8-2 0-2.6 1.2-1 2.4-2 4.2-2l1.9-.2m-11.7 57.5.3 2.1c0 .5 0 1-.2 1.5-.3 1.7-1.5 2.5-3.2 2-1.3-.5-2.5-.9-3.9-1-.3 0-.7 0-1-.2-1-.4-1.7-1.7-1.4-2.7a6 6 0 0 1 1.1-1.9c1.1-1.2 2.4-2.1 3.7-3a4 4 0 0 1 2.5-.5c1 0 1.9.9 2 1.8l.2 1.8ZM74 94.2l-.2 5.1c0 .6-.8 1-1.3 1-.4 0-.8 0-1-.2-2.4-1.5-4.8-3-7.3-4.3-.6-.3-.6-1.5-.1-2l.2-.2 4.4-2.6.4-.1c3-1 4.4 1 5 3.3M61.2 60.6l1.4-.3h1c.7 0 1.6.9 1.4 1.5-.8 2.3-.7 4.9-1.6 7.2l-.5 1c-.2.5-1 .8-1.5.6-.6-.1-1.4-.3-1.6-.8-1.4-2.2-2.8-4.4-3.5-6.9-.2-.7.1-1.5.9-1.8.6-.3 1.4-.5 2-.6h2"/>
  <path fill="#12c19b" d="m95.8 101.2 11.9-1.4 1.3 11.7-11.9 1.4z"/>
  <path fill="none" d="M105.8 111c-.4-.1-1.2 0-1.9-.3l-5.7-2.3-.3-.2c-.5-.3-.7-1.3-.3-1.7l.7-.8 3.9-3.4c1.3-1.2 2.6-.5 3 .6.6 2 1.7 3.8 2.4 5.7.5 1.2-.2 2.3-1.8 2.3"/>
  <path fill="#12c19b" fill-rule="evenodd" d="m79.6 67.6 4-.5c1.1-.1 2.2 1 1.9 2.2l-.8 2.4c-1.9 3.9-1.9 3.9-5.4 1.6l-4.1-2.5-.8-.8c-.3-.4 0-1.4.5-1.6l1-.3 3.7-.4v-.1m-27.4 33.6c.8 0 1.7.7 1.7 1.3 0 .3.1.5 0 .8-.2 1.3-.1 2.6 0 4a5 5 0 0 1-.3 1.7c-.2.6-1 1-1.4.9a39 39 0 0 0-5-1.2c-.4 0-.7-.3-1-.5-.6-.4-.9-1.3-.5-2a9.5 9.5 0 0 1 6-5h.5m45.3-57c0 .2 0 .6-.2.9-1 1.6-2.2 3.2-3.7 4.5-.7.7-1.8.7-2.7 0-.2-.2-.6-.4-.7-.7-.9-1.5-1.7-3-2-4.8 0-.3 0-.7.2-1 .1-.7 1-1.3 1.7-1.1l.7.1c1.5.7 3 1 4.6.7l1.1.1c.4.1.9.7 1 1.3M50.2 82.3l1.9-.2c.7 0 1.5.5 1.5 1.2l.3 4a3 3 0 0 1-.7 2.1c-.2.2-.7.5-1 .3-2-1-4.1-2-5.8-3.6l-.8-.8c-.4-.5-.2-1.6.4-1.9.5-.2.9-.5 1.4-.6l2.8-.6v.1m20.3-3.1.3 1.9c.1.6-.2 1.1-.6 1.6-.3.3-1 .6-1.4.4-1.7-1-3.6-1.6-5-3-.4-.3-.8-.7-1-1.1 0-.3.1-.7.3-1 0-.2.4-.3.6-.4 1.4-.5 2.6-1.3 3.8-2.3 1-.8 2.2-.2 2.5 1l.3 1.5.1 1.5h.1m.9-24.3c0-.6-.2-1.2-.1-1.8 0-.3.2-.7.4-1 .2-.5 1.2-.7 1.6-.4 1.3 1.3 2.7 2.4 4.4 3.2.7.4.7 1.7 0 2.2l-2.5 1.6c-1.5 1-2.8.5-3.3-1.3-.3-.8-.4-1.7-.5-2.5"/>
  <rect width="138.6" height="46.6" x="57.5" y="175.5" fill="#081590" rx="12" ry="12"/>
  <rect width="138.6" height="46.6" x="57.5" y="287.1" fill="#081590" rx="12" ry="12"/>
  <path fill="none" stroke="#081590" stroke-miterlimit="10" stroke-width="4.7" d="M126.7 144.9v20.6"/>
  <path fill="#fff" fill-rule="evenodd" d="M176 196c.9 0 1.8.7 2 1.6h-4a2 2 0 0 1 2-1.5Zm4.2 2.3a4.2 4.2 0 0 0-4.2-4.1 4.3 4.3 0 0 0 0 8.6c1.6 0 3-.8 3.8-2v-.3l-1.6-.8-.1.1c-.4.7-1.2 1.2-2 1.2-1 0-2-.7-2.3-1.8h6.4v-.9Zm-10.8-5.6c-.8 0-1.4-.6-1.4-1.3s.6-1.4 1.4-1.4 1.3.6 1.3 1.4c0 .7-.6 1.3-1.3 1.3Zm-1 10h2v-8.3h-2v8.3Zm-4-12.5h2v12.5h-2v-12.5Zm-4 12.5h2v-12.5h-2v12.5Zm-5.5-1.9c-1.3 0-2.3-1-2.3-2.3s1-2.3 2.3-2.3 2.3 1 2.3 2.3-1 2.3-2.3 2.3Zm0-6.6a4.3 4.3 0 1 0 0 8.7 4.3 4.3 0 0 0 0-8.7Zm-8.9 0h-.3c-1 0-2 .4-2.8 1.2a3.8 3.8 0 0 0-6.5 2.6v4.7h2V198c0-.9.7-1.7 1.6-1.7h.2c.9 0 1.7.7 1.7 1.7v4.7h2V198a2 2 0 0 1 1.6-1.8h.2c1 0 1.7.8 1.7 1.7v4.8h2V198c0-1-.3-1.9-1-2.6a3.7 3.7 0 0 0-2.4-1.2Zm-33.3 4.4c0-2.5-1.1-4.4-3.4-4.4s-3.6 2-3.6 4.3c0 2.9 1.6 4.3 4 4.3 1 0 1.9-.2 2.5-.6v-1.9a5 5 0 0 1-2.3.5c-1 0-1.7-.3-1.8-1.4h4.6v-.8Zm-4.7-1c0-1 .7-1.5 1.3-1.5.6 0 1.2.5 1.2 1.5H108Zm-6-3.4c-1 0-1.5.4-1.9.7v-.6h-2.2v11.1l2.4-.5v-2.7c.3.3.8.6 1.7.6 1.7 0 3.2-1.3 3.2-4.3 0-2.8-1.5-4.3-3.2-4.3Zm-.6 6.6c-.5 0-.9-.2-1.1-.5v-3.5c.2-.3.6-.5 1.1-.5.9 0 1.5 1 1.5 2.2 0 1.3-.6 2.3-1.5 2.3Zm-6.8-7.2 2.4-.5v-2l-2.4.6v2Zm0 .8H97v8.3h-2.4v-8.3Zm-2.5.7-.2-.7h-2v8.3h2.3V197c.6-.7 1.6-.6 1.9-.5v-2.1c-.3-.2-1.5-.4-2 .7Zm-4.8-2.8-2.3.5v7.6c0 1.4 1 2.5 2.5 2.5.7 0 1.3-.2 1.6-.4v-1.9c-.3.1-1.8.6-1.8-.8v-3.4h1.8v-2h-1.8v-2.1Zm-6.4 4.5c0-.4.3-.5.8-.5.8 0 1.6.2 2.4.6v-2.3c-.8-.3-1.6-.4-2.4-.4-2 0-3.2 1-3.2 2.7 0 2.6 3.6 2.2 3.6 3.3 0 .5-.4.6-1 .6a6 6 0 0 1-2.5-.8v2.3c.9.4 1.8.6 2.6.6 2 0 3.3-1 3.3-2.7 0-2.9-3.6-2.4-3.6-3.4Zm260.3 47.7c.4 0 .8.2 1 .6h-1.9a1 1 0 0 1 1-.6Zm1.8 1a1.8 1.8 0 0 0-1.7-1.8 1.9 1.9 0 0 0 0 3.7 2 2 0 0 0 1.6-1l-.7-.3a1 1 0 0 1-1 .5 1 1 0 0 1-1-.7h2.8v-.4Zm-4.6-2.5c-.4 0-.6-.2-.6-.6s.2-.6.6-.6.5.3.5.6-.2.6-.5.6Zm-.5 4.4h1v-3.7h-1v3.7Zm-1.7-5.5h.9v5.5h-1v-5.5Zm-1.8 5.5h1v-5.5h-1v5.5Zm-2.3-.9c-.6 0-1-.4-1-1s.4-1 1-1 1 .5 1 1-.5 1-1 1Zm0-2.8a1.9 1.9 0 1 0 0 3.7 1.9 1.9 0 0 0 0-3.7Zm-3.9 0h-.1c-.5 0-1 .1-1.2.5a1.7 1.7 0 0 0-2.9 1v2.2h.9v-2c0-.5.3-.8.7-.8.5 0 .8.3.8.7v2h.9v-2c0-.4.3-.7.7-.7.5 0 .8.3.8.7v2h.9v-2c0-.4-.2-.8-.4-1.1-.3-.3-.7-.5-1.1-.5Zm-11.7 1.9c0-1.1-.5-2-1.5-2s-1.6.9-1.6 2c0 1.2.7 1.8 1.7 1.8.5 0 .9 0 1.2-.2v-.9c-.3.2-.6.3-1 .3s-.8-.2-.8-.7h2v-.3Zm-2-.4c0-.5.2-.7.5-.7s.5.2.5.7h-1Zm-2.7-1.5c-.4 0-.6.2-.8.3v-.3h-1v4.9l1-.3v-1.1l.8.2c.8 0 1.4-.6 1.4-1.9 0-1.2-.6-1.8-1.4-1.8Zm-.2 2.8c-.3 0-.4 0-.5-.2v-1.5c0-.1.2-.2.5-.2.4 0 .6.4.6 1 0 .5-.2 1-.6 1Zm-3-3 1-.3v-.8l-1 .2v.8Zm0 .2h1v3.7h-1v-3.7Zm-1 .3-.2-.3h-.8v3.7h1v-2.5c.2-.3.6-.3.8-.2v-1c-.2 0-.6-.1-.9.3Zm-2.2-1.2-1 .2v3.4c0 .6.5 1 1.1 1l.7-.1v-.9c-.1.1-.8.3-.8-.3v-1.5h.8v-.9h-.8v-.9Zm-2.8 2c0-.2.2-.2.4-.2.4 0 .7 0 1 .2v-1l-1-.1c-.8 0-1.4.4-1.4 1.1 0 1.2 1.6 1 1.6 1.5 0 .2-.2.2-.4.2l-1.2-.3v1c.4.2.8.2 1.2.2.8 0 1.4-.4 1.4-1.1 0-1.3-1.6-1-1.6-1.5Z"/>
  <path fill="none" stroke="#fff" stroke-miterlimit="10" stroke-width=".2" d="M319.8 239.8v11.1" opacity=".4"/>
  <path fill="none" stroke="#081590" stroke-miterlimit="10" stroke-width="4.7" d="M126.8 198.8v54.3m.2 20.9v14.2"/>
  <path fill="#081590" d="m129.5 166.3 2.1-3c.6-.7 0-1.7-1-1.7h-3.3c-3 0-4.6 3.3-2.9 5.7l1.3 1.7c.4.6 1.4.6 1.8 0l1.3-1.7c1.7-2.4 0-5.7-3-5.7h-3.3c-1 0-1.5 1-.9 1.8l2 2.9c1.5 2 4.5 2 6 0Z"/>
  <path fill="none" stroke="#081590" stroke-miterlimit="10" stroke-width="1.1" d="M322.1 228.5v7.4"/>
  <path fill="#fff" d="M82 314.4h-1.7v-3l-2.7-4.9h2l1.6 3.2 1.7-3.2h1.8l-2.7 4.8v3.1Zm5.3.2c-.6 0-1-.2-1.5-.4s-.7-.6-1-1.1-.3-1-.3-1.6c0-.7.2-1.2.4-1.7s.5-.8 1-1 .8-.4 1.4-.4 1.1 0 1.5.3.7.6 1 1.1c.2.5.3 1 .3 1.7 0 .6-.1 1.1-.3 1.6s-.6.8-1 1-.9.5-1.5.5Zm0-1.4c.4 0 .6 0 .8-.3.2-.2.3-.5.3-.8v-1.2c0-.4-.1-.7-.3-1a1 1 0 0 0-.8-.2 1 1 0 0 0-.7.3c-.2.2-.3.5-.3.9v1.2c0 .3 0 .6.3.8.1.2.4.3.7.3Zm7.5 1.2v-1l-.6.8c-.3.2-.6.4-1.1.4-.6 0-1.1-.2-1.4-.7-.3-.4-.5-1-.5-1.7v-3.7H93v3.6c0 .3 0 .6.2.8.1.2.3.3.6.3l.5-.1.4-.3.2-.5v-3.8h1.6v6h-1.6Zm4.9 0H98v-5.9h1.7v1.3l.3-.6.5-.5.7-.2h.3v1.6h-1.2c-.2 0-.4.2-.5.3l-.1.6v3.4Zm5.5 0v-8.3h1.7v3.4c.1-.3.3-.6.6-.8a2.1 2.1 0 0 1 2.3 0l.8 1c.2.5.2 1 .2 1.8s0 1.2-.2 1.6-.5.9-.8 1.1c-.3.2-.8.4-1.3.4-.3 0-.7-.2-1-.4-.3-.2-.5-.5-.5-.8h-.1v1h-1.7Zm2.8-1.2c.3 0 .6-.1.8-.3.2-.3.3-.6.3-1v-1l-.3-.9a1 1 0 0 0-.8-.3l-.6.1-.4.3-.1.5v1.7l.1.5.4.3.6.1Zm9.4 1.2h-1l-.5-.1a1 1 0 0 1-.4-.5l-.2-.7v-.1l.4.4h-.4c-.1.4-.3.7-.6.9a2 2 0 0 1-1.2.3c-.6 0-1-.2-1.3-.5-.4-.3-.5-.8-.5-1.3 0-.4 0-.7.3-1 .2-.3.5-.5.9-.6a4 4 0 0 1 1.3-.2h1v-.4a1 1 0 0 0-.3-.7l-.7-.2c-.3 0-.6 0-.8.2l-.5.5-1-1 1-.7c.3-.2.8-.3 1.4-.3.8 0 1.5.1 1.9.5.4.4.6 1 .6 1.6v2.6h.6v1.3Zm-2.2-2.5h-.8c-.4 0-.6 0-.8.2l-.2.5v.2c0 .2 0 .3.2.4l.5.2h.6c.2 0 .2-.2.3-.3l.2-.5v-.7Zm5 2.5h-1.7v-5.9h1.7v1c.1-.3.3-.6.6-.8.3-.2.6-.3 1-.3.7 0 1.1.2 1.5.6.3.4.4 1 .4 1.7v3.7h-1.6v-3.6c0-.3 0-.6-.2-.8-.1-.2-.3-.3-.7-.3l-.5.1a1 1 0 0 0-.4.3l-.1.5v3.8Zm5 0v-8.3h1.7v4.9l.8-1 1.2-1.5h1.8l-2 2.3 2.3 3.6h-2l-1.4-2.5-.7.9v1.6h-1.7Zm14.5 0h-1l-.5-.1a1 1 0 0 1-.4-.5l-.2-.7v-.1l.4.4h-.4c-.1.4-.3.7-.6.9a2 2 0 0 1-1.2.3c-.6 0-1-.2-1.3-.5a1.9 1.9 0 0 1-.2-2.3c.2-.3.5-.5.9-.6a4 4 0 0 1 1.3-.2h1v-.4a1 1 0 0 0-.3-.7l-.7-.2c-.3 0-.6 0-.8.2l-.5.5-1-1 1-.7c.3-.2.8-.3 1.4-.3.9 0 1.5.1 2 .5.3.4.5 1 .5 1.6v2.6h.6v1.3Zm-2.2-2.5h-.8c-.4 0-.6 0-.8.2l-.2.5v.2c0 .2 0 .3.2.4l.6.2h.5c.2 0 .2-.2.3-.3l.2-.5v-.7Zm5.7 2.7c-.9 0-1.6-.3-2-.9-.5-.5-.8-1.3-.8-2.2s.3-1.7.8-2.3c.4-.6 1.1-.8 2-.8.6 0 1.1.1 1.5.4.4.2.7.6.9 1.1l-1.4.6-.3-.6a1 1 0 0 0-.7-.2c-.3 0-.6 0-.8.3l-.2 1v1c0 .4 0 .7.2 1l.8.2c.3 0 .6 0 .7-.2l.4-.6 1.3.5c-.2.6-.5 1-1 1.3s-.8.4-1.4.4Zm5.8 0c-1 0-1.6-.3-2-.9-.5-.5-.8-1.3-.8-2.2s.3-1.7.7-2.3c.5-.6 1.2-.8 2-.8.7 0 1.2.1 1.6.4.4.2.7.6.8 1.1l-1.3.6-.3-.6a1 1 0 0 0-.7-.2c-.4 0-.6 0-.8.3-.2.2-.2.5-.2 1v1c0 .4 0 .7.2 1l.8.2c.3 0 .6 0 .7-.2l.4-.6 1.3.5c-.2.6-.5 1-1 1.3s-.8.4-1.4.4Zm5.8 0c-.6 0-1.1-.2-1.5-.4s-.8-.6-1-1.1a4.3 4.3 0 0 1 0-3.3c.2-.5.6-.8 1-1s.9-.4 1.5-.4 1 0 1.5.3.7.6 1 1.1l.2 1.7c0 .6 0 1.1-.3 1.6s-.5.8-1 1-.9.5-1.4.5Zm0-1.4c.3 0 .6 0 .7-.3.2-.2.3-.5.3-.8v-1.2c0-.4 0-.7-.3-1a1 1 0 0 0-.7-.2 1 1 0 0 0-.8.3c-.2.2-.3.5-.3.9v1.2c0 .3.1.6.3.8.2.2.4.3.8.3Zm7.4 1.2v-1c-.1.3-.3.6-.6.8-.2.2-.6.4-1 .4-.7 0-1.2-.2-1.5-.7-.3-.4-.4-1-.4-1.7v-3.7h1.6v3.6c0 .3 0 .6.2.8.2.2.4.3.7.3l.5-.1.4-.3.1-.5v-3.8h1.7v6h-1.7Zm4.9 0h-1.6v-5.9h1.6v1l.6-.8a2 2 0 0 1 1.1-.3c.6 0 1 .2 1.4.6.3.4.5 1 .5 1.7v3.7H169v-3.6c0-.3 0-.6-.2-.8 0-.2-.3-.3-.6-.3l-.5.1a1 1 0 0 0-.4.3l-.2.5v3.8Zm8.1 0h-1c-.5 0-1-.1-1.3-.4s-.4-.7-.4-1.3v-3h-.8v-1.2h.4c.2 0 .3 0 .4-.2l.2-.4v-1h1.5v1.6h1.1v1.3h-1.1v3.3h1v1.3Z"/>
  <rect width="138.3" height="38.5" x="57.7" y="235.5" fill="#e3f4ff" rx="19.3" ry="19.3"/>
  <path fill="#081590" d="M111 259.3h-1.7v-7.9h3.7c.5 0 .9.1 1.3.3.3.2.6.5.8.9.2.4.3.8.3 1.3s-.1 1-.3 1.3l-.8 1c-.3.2-.8.2-1.3.2h-2v2.9Zm0-6.4v2h2.2l.3-.3.1-.4v-1l-.4-.2a1 1 0 0 0-.4-.1H111Zm10.7 6.4h-1c-.1 0-.3 0-.5-.2l-.4-.4-.2-.7v-.2l.4.4h-.4a2 2 0 0 1-.6 1 2 2 0 0 1-1.1.2 2 2 0 0 1-1.4-.5c-.3-.3-.5-.7-.5-1.2 0-.4.1-.8.3-1 .2-.3.5-.5.9-.7s.8-.2 1.3-.2h1v-.3c0-.3 0-.6-.2-.7-.2-.2-.4-.3-.8-.3-.3 0-.6 0-.8.2l-.5.5-1-.9 1-.8c.3-.2.8-.3 1.4-.3a3 3 0 0 1 2 .6c.3.3.6.9.6 1.6v2.6h.5v1.3Zm-2.2-2.5h-.8l-.8.1-.2.5v.2c0 .2 0 .4.2.5l.6.1h.5l.3-.3.2-.4v-.7Zm6-.7.8-2.8h1.6l-2.3 6.9c0 .3-.2.5-.4.7l-.5.5-.9.1h-1v-1.3h1l.3-.6-2-6.3h1.6l.8 2.8.5 1.7.5-1.7Zm5.5 3.3c-.5 0-1-.1-1.4-.4-.4-.2-.8-.6-1-1-.2-.5-.3-1-.3-1.7 0-.6.1-1.2.3-1.6.2-.5.6-.9 1-1.1s.9-.4 1.5-.4 1 .1 1.4.4.8.6 1 1c.2.5.3 1 .3 1.7 0 .6 0 1.2-.3 1.7s-.5.8-1 1c-.4.3-.9.4-1.4.4Zm0-1.3c.4 0 .6-.1.8-.3.2-.2.3-.5.3-.9v-1.2c0-.4 0-.7-.3-.9a1 1 0 0 0-.7-.3 1 1 0 0 0-.8.3c-.2.2-.3.5-.3 1v1.1c0 .4.1.7.3.9.2.2.4.3.8.3Zm7.5 1.2v-1l-.6.8c-.2.2-.6.3-1.1.3-.6 0-1-.2-1.4-.6-.3-.4-.4-1-.4-1.7v-3.7h1.6v3.5c0 .4 0 .7.2.9.1.2.4.3.7.3l.5-.1.4-.3.1-.5v-3.8h1.7v5.9h-1.7Zm6.3 0h-1c-.6 0-1-.2-1.3-.5-.3-.3-.4-.7-.4-1.3v-2.9h-.9v-1.3h.4l.5-.1.1-.5v-1h1.5v1.7h1.2v1.2h-1.2v3.4h1.1v1.3Z"/>
  <rect width="64.6" height="20.1" x="217.3" y="235.3" fill="#081590" rx="10" ry="10"/>
  <path fill="none" stroke="#081590" stroke-miterlimit="10" stroke-width="1.1" d="M249.8 226v9.3"/>
  <rect width="64.1" height="22.5" x="217.8" y="206.6" fill="#e3f4ff" rx="11.2" ry="11.2"/>
  <path fill="#081590" d="M230.9 220.5h-1l-.4-1H228l-.4 1h-1l1.5-4.6h1.3l1.5 4.6Zm-1.6-2-.3-.9-.3-.8-.2.8-.3 1h1Zm2.2 3.3V217h1v.6c0-.2.1-.3.3-.4.2-.2.4-.2.6-.2.3 0 .5 0 .7.2.2.1.4.3.5.6l.1 1-.1 1c-.1.3-.3.4-.5.6l-.7.2a1 1 0 0 1-.6-.2.8.8 0 0 1-.3-.5v2h-1Zm1.6-2c.2 0 .3 0 .4-.2l.2-.5v-.6c0-.2 0-.4-.2-.5l-.4-.2h-.4l-.2.2v1.6l.2.1h.4Zm2.4 2V217h1v.6c0-.2.1-.3.3-.4.2-.2.4-.2.6-.2.3 0 .5 0 .7.2.2.1.4.3.5.6l.1 1-.1 1c-.1.3-.3.4-.5.6l-.7.2a1 1 0 0 1-.6-.2.8.8 0 0 1-.3-.5v2h-1Zm1.6-2c.2 0 .3 0 .4-.2l.2-.5v-.6c0-.2 0-.4-.2-.5l-.4-.2h-.4l-.2.2v1.6l.2.1h.4Zm3.8.7h-.5c-.3 0-.6 0-.7-.2-.2-.2-.2-.4-.2-.7v-4h1v4.1h.4v.8Zm1.1-3.8-.5-.1-.1-.3v-.2l.1-.3.4-.2c.2 0 .4 0 .5.2l.1.3v.2l-.1.3-.5.1Zm-.5 3.8V217h1v3.5h-1Zm3.2.1c-.5 0-.9-.2-1.2-.5s-.4-.8-.4-1.3.2-1 .4-1.3c.3-.4.7-.5 1.2-.5.4 0 .7 0 1 .2s.3.4.4.7l-.8.3c0-.1 0-.2-.2-.3a.6.6 0 0 0-.4-.2l-.4.2-.2.6v.6c0 .2 0 .4.2.5 0 .2.2.2.4.2l.5-.1.2-.4.7.3c0 .4-.3.6-.5.7-.2.2-.5.3-.9.3Zm5.1-.1h-.5a.6.6 0 0 1-.6-.4v-.4l.1.2h-.2c0 .2-.2.4-.4.5l-.6.2a1 1 0 0 1-1-1v-.6l.6-.4.8-.1h.5v-.2l-.1-.4-.4-.2c-.2 0-.4 0-.5.2l-.3.2-.6-.5.6-.5c.2-.2.5-.1.8-.1.5 0 .9 0 1.1.3.3.2.4.5.4 1v1.4h.3v.8Zm-1.3-1.5h-.4l-.5.1-.1.3v.1l.1.3.3.1h.3l.3-.2v-.7Zm3.7 1.5h-.5c-.4 0-.6 0-.8-.3-.2-.1-.3-.4-.3-.7v-1.7h-.5v-.8h.6v-1h.9v1h.7v.7h-.7v2h.6v.7Zm1.3-3.8-.5-.1-.1-.3v-.2l.1-.3.5-.2c.2 0 .3 0 .4.2l.1.3v.2l-.1.3-.4.1Zm-.5 3.8V217h1v3.5h-1Zm3.3.1c-.4 0-.7 0-1-.2l-.5-.7-.2-1 .2-.9c.2-.3.3-.5.6-.6.2-.2.5-.2.8-.2l1 .2.5.6.2 1-.2 1-.6.6c-.3.2-.5.2-.9.2Zm0-.8c.1 0 .3 0 .4-.2l.2-.5v-.7l-.2-.5a.6.6 0 0 0-.4-.2l-.5.2-.2.5v.7l.2.5.5.2Zm3.2.7h-1V217h1v.6l.4-.4c.1-.2.4-.2.6-.2.4 0 .7 0 .8.3.2.3.3.6.3 1v2.2h-1v-2.6l-.4-.1h-.3l-.3.2v2.5Zm4.7 0v-2.7h-.5v-.8h.5v-.4c0-.3.1-.5.3-.7.2-.2.4-.3.7-.3h.7v.8h-.7v.6h.7v.8h-.7v2.7h-1Zm3.6.1c-.3 0-.6 0-.9-.2l-.5-.7c-.2-.2-.2-.6-.2-1 0-.3 0-.6.2-.9 0-.3.3-.5.5-.6.2-.2.5-.2.9-.2s.7 0 1 .2l.4.7.2.8v.3h-2.2c0 .3 0 .5.2.6l.5.2.5-.1.4-.3.5.6-.6.4-.9.2Zm0-3-.3.2-.2.2-.1.4h1.2v-.4l-.3-.2-.3-.1Zm3.7 3c-.3 0-.6 0-.9-.2l-.5-.7c-.2-.2-.2-.6-.2-1 0-.3 0-.6.2-.9 0-.3.3-.5.5-.6.2-.2.5-.2.9-.2s.7 0 1 .2l.4.7.2.8v.3h-2.2c0 .3 0 .5.2.6l.5.2.5-.1.4-.3.5.6-.6.4-.9.2Zm0-3-.3.2-.3.2v.4h1.2v-.4l-.3-.2-.3-.1Z"/>
  <path fill="none" d="M255 245.5h-.7v.8h1.1c.2-.4 0-.9-.4-.8Zm-10.5-.6a.5.5 0 0 0-.5 0l-.2.5h1c0-.2-.1-.4-.3-.5Zm10.8-.2v-.6l-.3-.1h-.7v.8h.7l.3-.1Zm3.2.3c-.1-.2-.5-.2-.7 0l-.1.6.1.7c.2.2.6.2.7 0l.1-.4v-.9Zm3.1 0c0-.2-.5-.2-.7 0v.6c-.1.4 0 .8.4.8.3 0 .4-.2.5-.5 0-.3 0-.7-.2-.9Z"/>
  <path fill="#fff" d="M237.3 247.8c.6-.9.2-2.1-.7-2.6-.6-.2-1 .6-.4 1 1 .5.2 1.8-.8 1.3-.2 0-1-1.2-1.3-2 .5-.8 1.3-2.3 1.2-2.7 0-2.3-3.4-2.3-3.5 0 0 .2.4 1.3.9 2.2-1 0-2.2.1-2.3.3-1.4.7-1 2.8.4 3.2 1.3.3 1.8-.4 2.7-2 1 1.4 1.2 2 2.3 2 .6 0 1.2-.2 1.5-.7Zm-5.6-.3c-1 .5-1.7-.8-.8-1.4.1-.1.9-.2 1.9-.2l-1.1 1.6Zm1.9-3a6 6 0 0 1-.8-1.7c0-.4.3-.8.8-.8s.8.4.8.8c0 .2-.3 1-.8 1.8Zm31.1 1 1-1v-.2h-.9l-.8.9v-1.8c0-.1 0-.2-.2-.2h-.6l-.1.2v3.5l.1.1h.7v-1l1 1h.9v-.2l-1-1.3Zm-5.3-.7c-.5-.8-2-.8-2.5 0-.2.3-.2.7-.1 1 0 .6.2 1 .6 1.1a2 2 0 0 0 1.5 0c.6-.2.7-.7.7-1.3 0-.3 0-.6-.2-.8Zm-.7.9c0 .3 0 .7-.5.7s-.5-.4-.5-.8c0-.3 0-.8.5-.7.4 0 .5.4.5.8Zm3.8-.9c-.5-.8-2-.8-2.4 0-.2.3-.2.7-.2 1 0 .6.2 1 .6 1.1a2 2 0 0 0 1.6 0c.5-.2.6-.7.6-1.3 0-.3 0-.6-.2-.8Zm-.7 1c0 .3 0 .4-.2.5 0 .2-.5.2-.7 0V245c.2-.2.6-.2.7 0 .2.2.2.6.2.9Zm-5.8-.8c.6-.3.5-1.3-.2-1.6-.4-.2-1.9 0-2.4-.1l-.1.1v3.6h.1c.5 0 2 .1 2.5-.1.7-.3.8-1.5 0-1.8Zm-1.7-1h.7c.2 0 .4.1.4.4 0 .2-.2.4-.4.4h-.7v-.8Zm1 2.2-.3.1h-.7v-.8h1.1v.7Zm-5.9-2.9h-.8l-.2.1-.1 1v.2h.7v-.2l.4-1Zm-1.4 3h-.5l-.2-.1v-1.3h.7v-.6h-.8v-1h-.8v1h-.6v.6h.5c0 .4 0 1.4.2 1.7.2.5 1 .4 1.4.4h.2v-.6h-.2Zm-3-1.9c-.3-.3-1-.3-1.4 0-.5.2-.7.6-.7 1.1 0 .5 0 1 .4 1.3.4.4 1.4.4 2 0 .1-.1.3-.3.3-.5h-1c-.1.2-.2.2-.3.2-.3 0-.5-.3-.5-.6h1.7l.2-.1c0-.6-.2-1.1-.6-1.4Zm-.3 1h-.9c0-.3.2-.6.5-.6s.4.3.4.6Zm6.8.1-1-.2-.2-.2v-.2h.6l.2.1h.6c.2-.1 0-.4-.2-.5-.6-.5-2-.4-2.1.6 0 .5.4.7.9.8l.6.2v.2c0 .2-.1.2-.3.2l-.5-.2h-.7v.3c.2.4.7.5 1.2.5.6 0 1.3-.2 1.3-.9 0-.3-.1-.5-.4-.6Zm-8.9.7H241v-2.8a.1.1 0 0 0-.1-.1h-.9v3.7h2.7v-.6c0-.1 0-.2-.2-.2Z"/>
  <circle cx="126.7" cy="107.8" r="42.8" fill="#081590"/>
  <path fill="#fff" d="M111.8 119.6c-.5 0-1-.1-1.3-.3a2 2 0 0 1-.7-.9c-.2-.4-.3-.9-.3-1.5s0-1 .3-1.4a2 2 0 0 1 2-1.3c.4 0 .8.1 1.1.3.4.2.6.5.8 1l-1 .5a1 1 0 0 0-.3-.6 1 1 0 0 0-.6-.2 1 1 0 0 0-.8.4c-.2.2-.3.5-.3.9v.8c0 .4 0 .7.3 1 .2.2.4.3.8.3.2 0 .5 0 .6-.2l.4-.6 1 .5-.8 1a2 2 0 0 1-1.2.3Zm4.9-.1v-.7l-.3.6-.8.2c-.4 0-.7-.1-.9-.4a2 2 0 0 1-.3-1.1v-2.5h1v2.4l.2.5.4.2h.4l.2-.3.1-.3v-2.5h1.1v3.9h-1Zm3.5.1c-.4 0-.7 0-1-.2l-.7-.5.7-.7.4.4.6.1h.5l.1-.3v-.3h-.4l-.4-.1-.7-.2a1 1 0 0 1-.5-.4l-.1-.6c0-.4.1-.7.4-1 .2-.2.6-.3 1-.3h.8c.2 0 .3.2.5.3l.4.3-.7.7c0-.2-.2-.3-.4-.3l-.5-.1h-.4v.5l.3.2h.5c.4 0 .7.2 1 .4s.3.5.3.8c0 .2-.1.5-.3.7l-.5.4-1 .2Zm4.4-.1h-.7c-.4 0-.7-.1-.9-.3s-.2-.5-.2-.8v-2h-.6v-.8h.3l.3-.1v-.9h1v1h.8v.9h-.8v2.1h.8v.9Zm2.4.1c-.4 0-.8 0-1-.3-.3-.1-.5-.4-.7-.7s-.2-.6-.2-1c0-.5 0-.8.2-1.1.2-.3.4-.6.7-.7.2-.2.6-.3 1-.3l1 .3c.2.1.4.4.5.7.2.3.3.6.3 1 0 .5-.1.8-.3 1.1-.1.3-.3.6-.6.7-.3.2-.6.3-1 .3Zm0-.9c.2 0 .3 0 .4-.2.2-.1.2-.3.2-.6v-.7c0-.3 0-.5-.2-.6a.6.6 0 0 0-.5-.2c-.2 0-.3 0-.5.2l-.1.6v.7l.1.6.5.2Zm3.6.8h-1v-3.9h1v.7l.4-.6.7-.2c.3 0 .5 0 .7.2.2.1.3.3.4.6l.5-.6.7-.2c.4 0 .7.2.9.4.2.3.3.7.3 1.2v2.4h-1.1v-2.4l-.1-.5-.4-.2h-.3l-.3.3v2.8h-1.2v-2.4l-.1-.5a.5.5 0 0 0-.4-.2h-.3l-.3.3v2.8Zm7.2.1a2 2 0 0 1-1-.3c-.3-.1-.5-.4-.7-.7s-.2-.6-.2-1l.2-1.1c.2-.3.4-.6.7-.7.2-.2.6-.3 1-.3s.7.1 1 .3c.3.2.5.4.6.7l.2 1v.3H137c0 .3 0 .6.2.7.1.2.3.2.6.2l.6-.1.4-.3.5.6-.6.5-1 .2Zm0-3.3-.4.1-.2.3-.1.4h1.3v-.4l-.3-.3h-.3Zm3.6 3.2h-1v-3.9h1v.9l.2-.5.4-.3.5-.1h.2v1h-.8l-.3.3-.2.3v2.3Zm-29.4 7.7v-5.4h1.1v.6c0-.2.2-.4.4-.5l.7-.2c.3 0 .6 0 .8.2l.5.7.2 1.1c0 .4 0 .8-.2 1.2a1 1 0 0 1-.5.6c-.2.2-.5.3-.8.3l-.7-.2a1 1 0 0 1-.4-.6v2.2H112Zm1.8-2.3c.2 0 .4 0 .5-.2.2-.2.2-.4.2-.6v-.7c0-.2 0-.4-.2-.6a.7.7 0 0 0-.5-.2 1 1 0 0 0-.3 0l-.3.3-.1.3v1.4l.4.2h.3Zm6.2.8h-.6l-.4-.1-.3-.3a1 1 0 0 1 0-.5l.2.2h-.3c0 .3-.2.4-.4.6s-.4.2-.7.2c-.4 0-.7-.1-1-.3l-.2-.9c0-.2 0-.5.2-.6 0-.2.3-.4.5-.4l1-.2h.5v-.2l-.1-.5-.5-.1-.5.1c-.2 0-.3.2-.3.3l-.7-.6.6-.5a2 2 0 0 1 1-.2c.5 0 1 .1 1.2.4s.4.6.4 1v1.7h.4v.9Zm-1.5-1.7h-.5c-.2 0-.4 0-.5.2l-.1.3v.4l.5.1h.3l.2-.2.1-.3v-.5Zm4-.4.6-1.8h1l-1.5 4.5c0 .2-.2.3-.3.5l-.4.3h-1.2v-.8h.7l.2-.4-1.4-4.1h1l.7 1.8.2 1.1.4-1Zm3.2 2.1h-1v-4h1v.7l.4-.5.7-.2c.3 0 .5 0 .7.2.2.1.3.3.4.6.1-.2.2-.4.5-.6l.7-.2c.4 0 .7.1.9.4.2.3.3.7.3 1.1v2.5h-1.1v-2.4l-.1-.5-.4-.2h-.4l-.2.2c-.1 0 0 .2 0 .4v2.5h-1.2v-2.4l-.1-.5a.5.5 0 0 0-.4-.2h-.3l-.3.2v2.9Zm7.2.1a2 2 0 0 1-1-.3c-.3-.1-.5-.4-.7-.7s-.2-.7-.2-1c0-.5 0-.8.2-1.1.2-.3.4-.6.7-.7.2-.2.6-.3 1-.3s.7 0 1 .3l.6.7.2 1v.3h-2.5c0 .3 0 .5.2.7l.6.2.6-.1.4-.4.5.7-.7.5a3 3 0 0 1-1 .2Zm0-3.3-.4.1-.3.3v.4h1.3v-.4l-.3-.3h-.3Zm3.6 3.2h-1v-4h1v.7l.4-.5.8-.2c.4 0 .7.1.9.4.2.3.3.7.3 1.1v2.5h-1.1v-2.4l-.1-.5-.5-.2a1 1 0 0 0-.3 0l-.3.2v2.9Zm5.4 0h-.7c-.3 0-.6-.1-.8-.3s-.3-.5-.3-.9v-1.9h-.6v-.8h.3l.3-.1v-1h1v1h.8v1h-.7v2.1h.7v.9Z"/>
  <path fill="#fff" fill-rule="evenodd" d="M130.1 94.8c0 1.8-1.6 3.7-3.5 3.7s-3.5-1.9-3.5-3.7 1.6-3.2 3.5-3.2 3.5 1.5 3.5 3.2Zm.6 11.8h.3c1 0 1.7-.8 1.7-1.7 0-3.2-2.5-5.7-5.7-5.7h-.8a5.7 5.7 0 0 0-5.7 5.7c0 1 .8 1.7 1.7 1.7h8.5Z"/>
  <rect width="64.1" height="22.5" x="290" y="206.6" fill="#e3f4ff" rx="11.2" ry="11.2"/>
  <path fill="#081590" d="M313.2 219.7h-1V215h2.1c.3 0 .6 0 .8.2l.5.5.1.8-.1.7-.5.5-.8.2h-1.1v1.7Zm0-3.7v1.2h1l.3-.1.1-.1v-.8l-.1-.2h-1.3Zm4.7 3.8a2.3 2.3 0 0 1-1.7-.8l.6-.6.5.4h1.2l.2-.5v-.2l-.2-.2h-.3l-.5-.1c-.3 0-.6-.1-.8-.3l-.5-.4-.1-.7a1.3 1.3 0 0 1 .8-1.2l1-.2c.3 0 .6 0 .8.2l.7.5-.7.6-.4-.3-.5-.1-.5.1c-.2 0-.2.2-.2.3v.3l.2.1.3.1.5.1.8.2.4.5.2.7c0 .3 0 .5-.2.7l-.6.6-1 .2Zm3.6-.1h-1V215h2.2c.3 0 .5 0 .7.2l.5.5.2.8c0 .3 0 .5-.2.7l-.5.5-.7.2h-1.2v1.7Zm0-3.7v1.2h1l.3-.1.2-.1v-.8l-.2-.2h-1.2Zm5 3.7V217h-.5v-.8h.5v-.4c0-.3.1-.6.3-.7.2-.2.4-.3.7-.3h.7v.8h-.7v.6h.7v.8h-.7v2.7h-1Zm3.6.1-.9-.3c-.3-.2-.4-.3-.5-.6-.2-.3-.2-.6-.2-1 0-.3 0-.6.2-.9 0-.3.3-.5.5-.6.2-.2.5-.2.9-.2s.7 0 1 .2l.4.6.2 1v.2h-2.2c0 .3 0 .5.2.6l.5.2.5-.1.4-.3.5.6-.6.4-.9.2Zm0-3-.3.2-.2.2-.1.4h1.2v-.4l-.3-.2-.3-.1Zm3.7 3-.9-.3c-.3-.2-.4-.3-.5-.6-.2-.3-.2-.6-.2-1 0-.3 0-.6.2-.9 0-.3.3-.5.5-.6.2-.2.5-.2.9-.2s.7 0 1 .2l.4.6.2 1v.2h-2.2c0 .3 0 .5.2.6l.5.2.5-.1.4-.3.5.6-.6.4-.9.2Zm0-3-.3.2-.3.2v.4h1.2v-.4l-.3-.2-.3-.1Zm3.5 3a2 2 0 0 1-.9-.2 2 2 0 0 1-.6-.5l.6-.5.4.3.5.1h.4l.1-.3v-.2l-.3-.1h-.4a2 2 0 0 1-.7-.2l-.4-.4v-.5c0-.4 0-.6.3-.8.2-.2.5-.4 1-.4l.6.1.4.2.4.3-.6.6-.4-.3a1 1 0 0 0-.4-.1h-.3l-.2.3.1.2.3.1h.4c.4.1.7.2.8.4.2.2.3.4.3.7 0 .2 0 .4-.2.6 0 .2-.2.3-.5.4a2 2 0 0 1-.7.2Z"/>
  <path fill="none" stroke="#fff" stroke-miterlimit="10" stroke-width=".4" d="M126.8 189v18.2" opacity=".7"/>
</svg>